<svg width="25" height="25" viewBox="0 0 25 25" fill="none" xmlns="http://www.w3.org/2000/svg">
<path d="M11.5964 7.4271C11.5964 7.42708 11.5964 7.42707 11.5965 7.42707H12.7807C13.4348 7.42707 13.965 7.95729 13.965 8.61135V9.30841C13.965 9.74003 14.3149 10.0899 14.7465 10.0899C15.1781 10.0899 15.528 9.74003 15.528 9.30841V1.12096C15.528 0.501923 15.0266 0 14.4075 0H3.34572C2.72668 0 2.22446 0.501923 2.22446 1.12096V23.8791C2.22446 24.4982 2.72663 25 3.34572 25H3.68219C5.69432 25 7.32547 23.3688 7.32547 21.3567V19.2549C7.32547 18.4036 8.01559 17.7134 8.8669 17.7134C9.7182 17.7134 10.4083 17.0233 10.4083 16.172V11.6149C10.4083 11.3332 10.4965 11.0718 10.6518 10.8479C11.0491 10.2747 11.5961 9.71173 11.5961 9.01436V7.4273C11.5961 7.4272 11.5962 7.42712 11.5963 7.42712H11.5964C11.5964 7.42712 11.5964 7.42711 11.5964 7.4271ZM11.5964 3.42639C11.5964 2.77234 12.1266 2.24212 12.7807 2.24212C13.4348 2.24212 13.965 2.77234 13.965 3.42639V4.42092C13.965 5.07498 13.4348 5.60519 12.7807 5.60519C12.1266 5.60519 11.5964 5.07498 11.5964 4.42092V3.42639ZM6.1965 21.1511H5.50963C4.58095 21.1511 3.8281 20.3983 3.8281 19.4696V18.9723C3.8281 18.3183 4.35829 17.7881 5.01232 17.7881C5.66635 17.7881 6.19655 18.3183 6.19655 18.9723V21.1511C6.19655 21.1511 6.19652 21.1511 6.1965 21.1511ZM6.1965 16.2277H5.50976C4.581 16.2277 3.8281 15.4748 3.8281 14.546V14.0486C3.8281 13.3945 4.35829 12.8643 5.01232 12.8643C5.66635 12.8643 6.19655 13.3945 6.19655 14.0486V16.2276C6.19655 16.2276 6.19652 16.2277 6.1965 16.2277ZM6.1965 10.7901H5.50963C4.58095 10.7901 3.8281 10.0373 3.8281 9.10861V8.6113C3.8281 7.95727 4.35829 7.42707 5.01232 7.42707C5.66635 7.42707 6.19655 7.95727 6.19655 8.6113V10.7901C6.19655 10.7901 6.19652 10.7901 6.1965 10.7901ZM6.1965 5.60544H5.50976C4.581 5.60544 3.8281 4.85254 3.8281 3.92378V3.42634C3.8281 2.77231 4.35829 2.24212 5.01232 2.24212C5.66635 2.24212 6.19655 2.77231 6.19655 3.42634V5.60539C6.19655 5.60542 6.19652 5.60544 6.1965 5.60544ZM10.1466 15.0437C10.1466 15.6976 9.61654 16.2277 8.96264 16.2277C8.30873 16.2277 7.77864 15.6976 7.77864 15.0437V14.0483C7.77864 13.3944 8.30873 12.8643 8.96264 12.8643C9.61654 12.8643 10.1466 13.3944 10.1466 14.0483V15.0437ZM10.1466 9.60615C10.1466 10.2601 9.61654 10.7901 8.96264 10.7901C8.30873 10.7901 7.77864 10.2601 7.77864 9.60615V8.61107C7.77864 7.95717 8.30873 7.42707 8.96264 7.42707C9.61654 7.42707 10.1466 7.95717 10.1466 8.61107V9.60615ZM10.1466 4.42145C10.1466 5.07535 9.61654 5.60544 8.96264 5.60544C8.30873 5.60544 7.77864 5.07535 7.77864 4.42145V3.42612C7.77864 2.77221 8.30873 2.24212 8.96264 2.24212C9.61654 2.24212 10.1466 2.77221 10.1466 3.42612V4.42145ZM21.8259 10.9867H12.4569C11.9324 10.9867 11.5072 11.2679 11.5072 11.6149V24.3714C11.5072 24.7189 11.9324 25 12.4569 25H13.7856C14.9135 25 15.8278 24.0857 15.8278 22.9578V22.269C15.8278 21.5216 16.4337 20.9157 17.1812 20.9157C17.9286 20.9157 18.5345 21.5216 18.5345 22.269V22.9578C18.5345 24.0857 19.4488 25 20.5767 25H21.8259C22.3502 25 22.7755 24.7189 22.7755 24.3714V11.6149C22.7754 11.2679 22.3501 10.9867 21.8259 10.9867ZM14.8711 21.8999C14.8711 22.4205 14.4491 22.8424 13.9286 22.8424H13.8077C13.2872 22.8424 12.8652 22.4205 12.8652 21.8999C12.8652 21.3794 13.2872 20.9575 13.8077 20.9575H13.9286C14.4491 20.9575 14.8711 21.3794 14.8711 21.8999ZM14.8711 19.1402C14.8711 19.6608 14.4491 20.0827 13.9285 20.0827H13.8077C13.2872 20.0827 12.8652 19.6608 12.8652 19.1402C12.8652 18.6197 13.2872 18.1977 13.8077 18.1977H13.9286C14.4491 18.1977 14.8711 18.6197 14.8711 19.1402ZM14.8711 16.0926C14.8711 16.6131 14.4491 17.0351 13.9286 17.0351H13.8077C13.2872 17.0351 12.8652 16.6131 12.8652 16.0926C12.8652 15.5721 13.2872 15.1501 13.8077 15.1501H13.9286C14.4491 15.1501 14.8711 15.5721 14.8711 16.0926ZM14.8711 13.1859C14.8711 13.7065 14.449 14.1285 13.9285 14.1285H13.8078C13.2872 14.1285 12.8652 13.7065 12.8652 13.1859C12.8652 12.6654 13.2872 12.2434 13.8078 12.2434H13.9285C14.4491 12.2434 14.8711 12.6654 14.8711 13.1859ZM18.2175 19.1402C18.2175 19.6608 17.7956 20.0827 17.275 20.0827H17.1542C16.6336 20.0827 16.2117 19.6608 16.2117 19.1402C16.2117 18.6197 16.6336 18.1977 17.1542 18.1977H17.275C17.7956 18.1977 18.2175 18.6197 18.2175 19.1402ZM18.2175 16.0926C18.2175 16.6131 17.7956 17.0351 17.2751 17.0351H17.1541C16.6336 17.0351 16.2117 16.6131 16.2117 16.0926C16.2117 15.5721 16.6336 15.1501 17.1541 15.1501H17.2751C17.7956 15.1501 18.2175 15.5721 18.2175 16.0926ZM18.2175 13.1859C18.2175 13.7065 17.7955 14.1285 17.275 14.1285H17.1542C16.6337 14.1285 16.2117 13.7065 16.2117 13.1859C16.2117 12.6654 16.6337 12.2434 17.1542 12.2434H17.275C17.7955 12.2434 18.2175 12.6654 18.2175 13.1859ZM21.4514 21.942C21.4514 22.4625 21.0295 22.8845 20.5089 22.8845H20.3881C19.8676 22.8845 19.4456 22.4625 19.4456 21.942C19.4456 21.4215 19.8676 20.9995 20.3881 20.9995H20.5089C21.0295 20.9995 21.4514 21.4215 21.4514 21.942ZM21.4514 19.1402C21.4514 19.6608 21.0295 20.0827 20.5089 20.0827H20.3881C19.8676 20.0827 19.4456 19.6608 19.4456 19.1402C19.4456 18.6197 19.8676 18.1977 20.3881 18.1977H20.5089C21.0295 18.1977 21.4514 18.6197 21.4514 19.1402ZM21.4514 16.0926C21.4514 16.6131 21.0295 17.0351 20.509 17.0351H20.3881C19.8676 17.0351 19.4456 16.6131 19.4456 16.0926C19.4456 15.5721 19.8676 15.1501 20.3881 15.1501H20.509C21.0295 15.1501 21.4514 15.5721 21.4514 16.0926ZM21.4514 13.1859C21.4514 13.7065 21.0294 14.1285 20.5089 14.1285H20.3882C19.8676 14.1285 19.4456 13.7065 19.4456 13.1859C19.4456 12.6654 19.8676 12.2434 20.3882 12.2434H20.5089C21.0294 12.2434 21.4514 12.6654 21.4514 13.1859Z" fill="#767676"/>
</svg>
