<svg width="25" height="25" viewBox="0 0 25 25" fill="none" xmlns="http://www.w3.org/2000/svg">
<path d="M17.9063 0H7.09367C6.37631 0 5.79266 0.562174 5.79266 1.25289V23.748C5.79266 24.4378 6.37588 25 7.09367 25H17.9063C18.6241 25 19.2073 24.4378 19.2073 23.748V1.25247C19.2073 0.561751 18.624 0 17.9063 0ZM10.6125 2.07938C10.6125 2.00627 10.6718 1.94699 10.7449 1.94699H14.2551C14.3282 1.94699 14.3875 2.00625 14.3875 2.07936C14.3875 2.15247 14.3282 2.21174 14.2551 2.21174H10.7449C10.6718 2.21174 10.6125 2.15249 10.6125 2.07938ZM12.5002 23.6886C12.0987 23.6886 11.7725 23.3624 11.7725 22.9614C11.7725 22.5608 12.0987 22.235 12.5002 22.235C12.9016 22.235 13.2278 22.5613 13.2278 22.9614C13.2278 23.3624 12.9016 23.6886 12.5002 23.6886ZM18.3193 16.9663C18.3193 19.1754 16.5284 20.9663 14.3193 20.9663H10.6824C8.47321 20.9663 6.68235 19.1754 6.68235 16.9663V7.71912C6.68235 5.50998 8.47321 3.71912 10.6823 3.71912H14.3193C16.5284 3.71912 18.3193 5.50998 18.3193 7.71912V16.9663Z" fill="#777777"/>
</svg>
