<svg width="40" height="40" viewBox="0 0 40 40" fill="none" xmlns="http://www.w3.org/2000/svg">
<circle cx="20" cy="20" r="20" fill="#FF6563"/>
<g clip-path="url(#clip0)">
<path d="M24.1736 10.5893L21.7048 14.0364C21.2155 14.7225 21.3947 15.6952 22.1054 16.2039L23.8416 17.4476C23.8053 17.5503 23.7672 17.6567 23.7267 17.7687C23.3609 18.7959 22.8594 20.2021 21.7273 21.7816C20.593 23.3657 19.4215 24.2944 18.5664 24.9731C18.4758 25.0448 18.3883 25.1136 18.3056 25.1809L17.1416 24.346L16.568 23.9358C15.8563 23.4262 14.8782 23.5707 14.3869 24.2558L11.9178 27.7028C11.4274 28.3878 11.6067 29.3609 12.3184 29.8704L13.2947 30.5653L13.3135 30.5388C13.7164 30.7593 14.1664 30.9249 14.6387 31.0253C15.0875 31.1157 15.5069 31.1488 15.9182 31.1276C19.2205 30.9826 21.9348 29.0136 25.2859 24.3341C29.9178 17.8657 28.7587 13.4622 28.7063 13.2727C28.5865 12.8607 28.4195 12.4746 28.1928 12.0915C27.9483 11.6802 27.6471 11.3077 27.3092 10.9974L27.3224 10.9765L26.3558 10.2689C25.6443 9.76054 24.6658 9.90438 24.1736 10.5893Z" fill="black"/>
</g>
<defs>
<clipPath id="clip0">
<rect width="19.4121" height="19.4121" fill="white" transform="matrix(-0.163196 -0.986594 -0.986594 0.163196 31.2867 28.6475)"/>
</clipPath>
</defs>
</svg>
