<svg width="112" height="112" viewBox="0 0 112 112" fill="none" xmlns="http://www.w3.org/2000/svg">
<g clip-path="url(#clip0)">
<path d="M71.7773 6.9537L67.6948 18.4054L64.0671 28.5852C63.3691 30.5493 64.3033 32.7196 66.21 33.5624L74.5014 37.2207C76.2977 38.0027 77.2531 39.9798 76.7493 41.8732C75.6301 46.0461 74.7975 50.8577 67.6247 62.8114C60.4519 74.7652 56.6173 77.7781 53.4656 80.7332C52.0337 82.0705 49.8396 82.1605 48.303 80.9454L41.1665 75.3597C39.5242 74.0761 37.1698 74.2758 35.767 75.8178L28.7256 83.5721L20.3293 92.8193C18.9001 94.3932 18.9589 96.8121 20.4627 98.3147L27.0551 104.9C28.8142 106.685 31.1929 107.725 33.6981 107.805C41.9569 107.988 59.1107 104.142 79.5827 69.9751C100.055 35.808 95.3535 18.8703 91.2969 11.674C90.0451 9.50249 88.0059 7.89564 85.6018 7.18661L76.686 4.47952C74.6516 3.86211 72.4911 4.95114 71.7773 6.9537Z" fill="white"/>
<path d="M24.2642 57.5816C20.6907 43.2572 29.3869 28.7431 43.7036 25.1377C44.5463 24.9265 45.0584 24.0721 44.8471 23.2292C44.6359 22.3865 43.7815 21.8744 42.9386 22.0856C26.9376 26.115 17.2181 42.3366 21.2122 58.3464C21.4234 59.1891 22.2779 59.7012 23.1208 59.4899C23.9634 59.2789 24.4755 58.4245 24.2642 57.5816Z" fill="white"/>
<path d="M33.42 55.2867C31.1083 46.0179 36.7352 36.6271 45.9983 34.2937C46.841 34.0825 47.3532 33.228 47.1419 32.3852C46.9307 31.5424 46.0762 31.0303 45.2333 31.2416C34.2857 33.999 27.6356 45.0976 30.3679 56.0517C30.5791 56.8944 31.4335 57.4065 32.2764 57.1953C33.1193 56.984 33.6312 56.1296 33.42 55.2867Z" fill="white"/>
<path d="M42.576 52.9918C41.5253 48.7786 44.0829 44.5101 48.2935 43.4493C49.1362 43.2381 49.6483 42.3837 49.4371 41.5408C49.2258 40.698 48.3714 40.1859 47.5285 40.3972C41.6335 41.8819 38.0527 47.8582 39.524 53.7566C39.7352 54.5993 40.5896 55.1114 41.4325 54.9001C42.2753 54.6891 42.7872 53.8347 42.576 52.9918Z" fill="white"/>
</g>
<defs>
<clipPath id="clip0">
<rect width="91.2457" height="91.2457" fill="white" transform="translate(23.1526 111.381) rotate(-104.071)"/>
</clipPath>
</defs>
</svg>
