<svg width="32" height="32" viewBox="0 0 32 32" fill="none" xmlns="http://www.w3.org/2000/svg">
<path d="M20.9068 21.6666V12.1641C20.9068 12.0501 20.9999 11.9577 21.1149 11.9577H25.917C26.4136 11.9577 26.8899 12.1534 27.2411 12.5016L30.1839 15.4189C30.4183 15.6511 30.5499 15.9662 30.5499 16.2949V21.6667H20.9068V21.6666Z" fill="#E58D23"/>
<path d="M24.6149 11.9577H21.1149C21 11.9577 20.9068 12.0501 20.9068 12.1641V21.6666H24.4068V12.1641C24.4068 12.0501 24.5 11.9577 24.6149 11.9577Z" fill="#BF6C0D"/>
<path d="M20.1084 22.4675H5.74774V10.6978C5.74774 10.4715 5.93112 10.2881 6.15737 10.2881H19.6987C19.925 10.2881 20.1084 10.4715 20.1084 10.6978V22.4675Z" fill="#FF624B"/>
<path d="M19.1084 16.118C18.9013 16.118 18.7334 15.9501 18.7334 15.743V11.2883C18.7334 11.0811 18.9013 10.9133 19.1084 10.9133C19.3155 10.9133 19.4834 11.0811 19.4834 11.2883V15.743C19.4834 15.9501 19.3155 16.118 19.1084 16.118Z" fill="#FFA730"/>
<path d="M15.7824 19.0124H10.0078C9.79626 19.0124 9.62476 18.8409 9.62476 18.6294V13.9148C9.62476 13.7033 9.79626 13.5318 10.0078 13.5318H15.7824C15.9939 13.5318 16.1654 13.7033 16.1654 13.9148V18.6294C16.1654 18.841 15.9939 19.0124 15.7824 19.0124Z" fill="#F9BB32"/>
<path d="M13.7319 15.9606V13.5318H11.993V15.9606C12.1376 15.9606 12.1376 16.2035 12.2824 16.2035C12.4273 16.2035 12.4273 15.9606 12.572 15.9606C12.7169 15.9606 12.7169 16.2035 12.8616 16.2035C13.0065 16.2035 13.0065 15.9606 13.1514 15.9606C13.2965 15.9606 13.2965 16.2035 13.4416 16.2035C13.5868 16.2035 13.5868 15.9606 13.7319 15.9606Z" fill="#FFDF74"/>
<path d="M11.356 18.6068H10.1159C10.0588 18.6068 10.0125 18.5605 10.0125 18.5034V17.8833C10.0125 17.8261 10.0588 17.7799 10.1159 17.7799H11.356C11.4131 17.7799 11.4594 17.8261 11.4594 17.8833V18.5034C11.4593 18.5605 11.413 18.6068 11.356 18.6068Z" fill="#FFD551"/>
<path d="M15.7217 18.1117H14.3554C14.2864 18.1117 14.2304 18.0557 14.2304 17.9867C14.2304 17.9177 14.2864 17.8617 14.3554 17.8617H15.7217C15.7907 17.8617 15.8467 17.9177 15.8467 17.9867C15.8467 18.0557 15.7908 18.1117 15.7217 18.1117Z" fill="#A56021"/>
<path d="M15.7217 18.5251H14.3554C14.2864 18.5251 14.2304 18.4691 14.2304 18.4001C14.2304 18.3311 14.2864 18.2751 14.3554 18.2751H15.7217C15.7907 18.2751 15.8467 18.3311 15.8467 18.4001C15.8467 18.4691 15.7908 18.5251 15.7217 18.5251Z" fill="#A56021"/>
<path d="M9.65729 10.2883H6.15729C5.93104 10.2883 5.74767 10.4716 5.74767 10.6979V22.4676H9.24766V10.6978C9.24779 10.4716 9.43116 10.2883 9.65729 10.2883Z" fill="#FF4B34"/>
<path d="M29.093 17.6207V16.5513C29.093 16.4418 29.0491 16.3367 28.971 16.2593L26.2113 13.5236C26.1328 13.4457 26.0283 13.4028 25.917 13.4028H22.78C22.5501 13.4028 22.3638 13.5877 22.3638 13.8157V17.6208C22.3638 17.8488 22.5501 18.0337 22.78 18.0337H28.6769C28.9066 18.0335 29.093 17.8487 29.093 17.6207Z" fill="#FFDF74"/>
<path d="M30.5326 24.5566H5.07201C4.88038 24.5566 4.72501 24.4012 4.72501 24.2096V22.8393C4.72501 22.6477 4.88038 22.4923 5.07201 22.4923H30.5325V24.5566H30.5326Z" fill="#FFD551"/>
<path d="M30.7925 24.5566H20.999V20.8066H30.7925C30.9924 20.8066 31.1544 20.9686 31.1544 21.1685V24.1948C31.1545 24.3945 30.9924 24.5566 30.7925 24.5566Z" fill="#F9BB32"/>
<path d="M30.1545 23.9315C29.9474 23.9315 29.7795 23.7636 29.7795 23.5565V21.8065C29.7795 21.5993 29.9474 21.4315 30.1545 21.4315C30.3616 21.4315 30.5295 21.5993 30.5295 21.8065V23.5565C30.5295 23.7636 30.3616 23.9315 30.1545 23.9315Z" fill="#FFC34C"/>
<path d="M20.4424 25.637H15.7865C15.53 25.637 15.3222 25.4291 15.3222 25.1726V22.932C15.3222 22.6755 15.53 22.4676 15.7865 22.4676H20.4424C20.6989 22.4676 20.9068 22.6755 20.9068 22.932V25.1726C20.9068 25.4291 20.6989 25.637 20.4424 25.637Z" fill="#FFA730"/>
<path d="M8.225 24.2096V22.8393C8.225 22.6477 8.38038 22.4923 8.572 22.4923H5.07201C4.88038 22.4923 4.72501 22.6477 4.72501 22.8393V24.2096C4.72501 24.4012 4.88038 24.5566 5.07201 24.5566H8.572C8.38038 24.5566 8.225 24.4011 8.225 24.2096Z" fill="#FFC34C"/>
<path d="M9.84154 28.7748C11.5657 28.7748 12.9634 27.3884 12.9634 25.6783C12.9634 23.9681 11.5657 22.5818 9.84154 22.5818C8.11738 22.5818 6.71967 23.9681 6.71967 25.6783C6.71967 27.3884 8.11738 28.7748 9.84154 28.7748Z" fill="#BF6C0D"/>
<path d="M9.84153 27.2265C10.7036 27.2265 11.4025 26.5333 11.4025 25.6783C11.4025 24.8232 10.7036 24.13 9.84153 24.13C8.97942 24.13 8.28053 24.8232 8.28053 25.6783C8.28053 26.5333 8.97942 27.2265 9.84153 27.2265Z" fill="#FFC34C"/>
<path d="M8.21966 25.6783C8.21966 24.2246 9.22979 23.0055 10.5915 22.6724C10.3513 22.6135 10.1002 22.5818 9.84154 22.5818C8.11741 22.5818 6.71967 23.968 6.71967 25.6781C6.71967 27.3883 8.11741 28.7745 9.84154 28.7745C10.1002 28.7745 10.3513 28.7428 10.5915 28.6839C9.22966 28.3509 8.21966 27.1319 8.21966 25.6783Z" fill="#A56021"/>
<path d="M9.28053 25.6783C9.28053 24.9981 9.72553 24.4204 10.3415 24.2129C10.1843 24.16 10.0165 24.13 9.84153 24.13C8.98078 24.13 8.28053 24.8245 8.28053 25.6783C8.28053 26.532 8.98078 27.2265 9.84153 27.2265C10.0165 27.2265 10.1843 27.1965 10.3415 27.1435C9.72553 26.9361 9.28053 26.3584 9.28053 25.6783Z" fill="#DB9C2E"/>
<path d="M16.8222 25.1726V22.932C16.8222 22.6755 17.03 22.4676 17.2865 22.4676H15.7865C15.53 22.4676 15.3222 22.6756 15.3222 22.932V25.1726C15.3222 25.4291 15.53 25.6371 15.7865 25.6371H17.2865C17.03 25.6371 16.8222 25.4291 16.8222 25.1726Z" fill="#E58D23"/>
<path d="M17.0738 24.7991C16.8439 24.7991 16.6575 24.6127 16.6575 24.3829V22.4675H17.49V24.3829C17.49 24.6129 17.3038 24.7991 17.0738 24.7991Z" fill="#FFC34C"/>
<path d="M19.1552 24.7991C18.9253 24.7991 18.7389 24.6127 18.7389 24.3829V22.4675H19.5714V24.3829C19.5714 24.6129 19.385 24.7991 19.1552 24.7991Z" fill="#FFC34C"/>
<path d="M10.7992 22.1274C11.4205 22.1274 11.9242 21.6237 11.9242 21.0024C11.9242 20.3811 11.4205 19.8774 10.7992 19.8774C10.1778 19.8774 9.67416 20.3811 9.67416 21.0024C9.67416 21.6237 10.1778 22.1274 10.7992 22.1274Z" fill="#FF4B34"/>
<path d="M24.4068 13.4027H22.78C22.5501 13.4027 22.3638 13.5876 22.3638 13.8156V17.6207C22.3638 17.8487 22.5501 18.0336 22.78 18.0336H24.4069V13.4027H24.4068Z" fill="#FFD551"/>
<path d="M24.4069 20.8066H20.9045V24.5566H24.4069V20.8066Z" fill="#DB9C2E"/>
<path d="M25.8671 28.7748C27.5913 28.7748 28.989 27.3884 28.989 25.6783C28.989 23.9681 27.5913 22.5818 25.8671 22.5818C24.143 22.5818 22.7453 23.9681 22.7453 25.6783C22.7453 27.3884 24.143 28.7748 25.8671 28.7748Z" fill="#BF6C0D"/>
<path d="M25.8672 27.2265C26.7293 27.2265 27.4282 26.5333 27.4282 25.6783C27.4282 24.8232 26.7293 24.13 25.8672 24.13C25.005 24.13 24.3062 24.8232 24.3062 25.6783C24.3062 26.5333 25.005 27.2265 25.8672 27.2265Z" fill="#FFC34C"/>
<path d="M24.2453 25.6783C24.2453 24.2246 25.2554 23.0055 26.6171 22.6724C26.3769 22.6135 26.1258 22.5818 25.8671 22.5818C24.143 22.5818 22.7453 23.968 22.7453 25.6781C22.7453 27.3883 24.143 28.7745 25.8671 28.7745C26.1258 28.7745 26.3769 28.7428 26.6171 28.6839C25.2554 28.3509 24.2453 27.1319 24.2453 25.6783Z" fill="#A56021"/>
<path d="M25.3063 25.6783C25.3063 24.9981 25.7513 24.4204 26.3673 24.2129C26.21 24.16 26.0423 24.13 25.8673 24.13C25.0065 24.13 24.3063 24.8245 24.3063 25.6783C24.3063 26.532 25.0065 27.2265 25.8673 27.2265C26.0423 27.2265 26.21 27.1965 26.3673 27.1435C25.7513 26.9361 25.3063 26.3584 25.3063 25.6783Z" fill="#DB9C2E"/>
<path d="M25.7284 16.1429C26.3497 16.1429 26.8534 15.6392 26.8534 15.0179C26.8534 14.3966 26.3497 13.8929 25.7284 13.8929C25.1071 13.8929 24.6034 14.3966 24.6034 15.0179C24.6034 15.6392 25.1071 16.1429 25.7284 16.1429Z" fill="#FFD551"/>
<path d="M6.21351 13.9741C9.1779 13.9741 11.581 11.5679 11.581 8.59975C11.581 5.63156 9.1779 3.22537 6.21351 3.22537C3.24912 3.22537 0.846008 5.63156 0.846008 8.59975C0.846008 11.5679 3.24912 13.9741 6.21351 13.9741Z" fill="#CCC033"/>
<path d="M4.91764 12.4012C2.82152 10.3024 2.82152 6.89948 4.91764 4.8006C5.64539 4.07185 6.53027 3.59685 7.46302 3.3741C5.70927 2.95535 3.78602 3.43048 2.41764 4.8006C0.321519 6.89948 0.321519 10.3025 2.41764 12.4012C3.78602 13.7714 5.70927 14.2465 7.46302 13.8277C6.53039 13.6051 5.64552 13.13 4.91764 12.4012Z" fill="#99AF17"/>
<path d="M6.21312 13.3491C4.9465 13.3491 3.75562 12.8552 2.85987 11.9584C1.01037 10.1064 1.01037 7.093 2.85987 5.24112C3.75562 4.34425 4.9465 3.85037 6.21312 3.85037C7.47975 3.85037 8.67062 4.34425 9.56637 5.24112C11.4159 7.093 11.4159 10.1064 9.56637 11.9584C8.67062 12.8552 7.47975 13.3491 6.21312 13.3491Z" fill="#FFDF74"/>
<path d="M6.20342 3.85062C4.94042 3.85312 3.7533 4.34662 2.8598 5.24112C1.0103 7.09299 1.0103 10.1064 2.8598 11.9584C3.7533 12.8529 4.9403 13.3464 6.20342 13.3489C5.74142 13.1041 5.30667 12.7895 4.91767 12.4C2.82155 10.3011 2.82155 6.89824 4.91767 4.79937C5.30667 4.40999 5.74142 4.09537 6.20342 3.85062Z" fill="#FFD551"/>
<path d="M6.2034 5.62799C6.0654 5.62799 5.9534 5.51599 5.9534 5.37799V4.37799C5.9534 4.23999 6.0654 4.12799 6.2034 4.12799C6.3414 4.12799 6.4534 4.23999 6.4534 4.37799V5.37799C6.4534 5.51612 6.34152 5.62799 6.2034 5.62799Z" fill="#FFF4C1"/>
<path d="M6.2034 13.128C6.0654 13.128 5.9534 13.016 5.9534 12.878V11.878C5.9534 11.74 6.0654 11.628 6.2034 11.628C6.3414 11.628 6.4534 11.74 6.4534 11.878V12.878C6.4534 13.0161 6.34152 13.128 6.2034 13.128Z" fill="#FFF4C1"/>
<path d="M10.4534 8.87799H9.4534C9.3154 8.87799 9.2034 8.76599 9.2034 8.62799C9.2034 8.48999 9.3154 8.37799 9.4534 8.37799H10.4534C10.5914 8.37799 10.7034 8.48999 10.7034 8.62799C10.7034 8.76599 10.5915 8.87799 10.4534 8.87799Z" fill="#FFF4C1"/>
<path d="M2.95342 8.87799H1.95342C1.81541 8.87799 1.70341 8.76599 1.70341 8.62799C1.70341 8.48999 1.81541 8.37799 1.95342 8.37799H2.95342C3.09142 8.37799 3.20342 8.48999 3.20342 8.62799C3.20342 8.76599 3.09154 8.87799 2.95342 8.87799Z" fill="#FFF4C1"/>
<path d="M9.20865 11.8832C9.14465 11.8832 9.08065 11.8589 9.0319 11.81L8.32478 11.1029C8.22715 11.0052 8.22715 10.847 8.32478 10.7494C8.42228 10.6517 8.58078 10.6517 8.67828 10.7494L9.3854 11.4565C9.48302 11.5541 9.48302 11.7124 9.3854 11.81C9.33665 11.8589 9.27265 11.8832 9.20865 11.8832Z" fill="#FFF4C1"/>
<path d="M3.90538 6.57986C3.84138 6.57986 3.77738 6.55549 3.72863 6.50662L3.02151 5.79949C2.92388 5.70187 2.92388 5.54362 3.02151 5.44599C3.11901 5.34837 3.27751 5.34837 3.37501 5.44599L4.08213 6.15312C4.17976 6.25074 4.17976 6.40899 4.08213 6.50662C4.03338 6.55549 3.96926 6.57986 3.90538 6.57986Z" fill="#FFF4C1"/>
<path d="M3.19826 11.8832C3.13426 11.8832 3.07038 11.8589 3.02151 11.81C2.92388 11.7124 2.92388 11.5541 3.02151 11.4565L3.72863 10.7494C3.82613 10.6517 3.98451 10.6517 4.08213 10.7494C4.17976 10.847 4.17976 11.0052 4.08213 11.1029L3.37501 11.81C3.32626 11.8589 3.26226 11.8832 3.19826 11.8832Z" fill="#FFF4C1"/>
<path d="M8.50153 6.57986C8.43753 6.57986 8.37353 6.55549 8.32478 6.50662C8.22715 6.40899 8.22715 6.25074 8.32478 6.15312L9.0319 5.44599C9.12952 5.34837 9.2879 5.34837 9.3854 5.44599C9.48302 5.54362 9.48302 5.70187 9.3854 5.79949L8.67828 6.50662C8.62953 6.55549 8.56553 6.57986 8.50153 6.57986Z" fill="#FFF4C1"/>
<path d="M8.27528 8.84977H6.21315C6.07553 8.84977 5.96378 8.73852 5.96315 8.60089L5.9534 6.33114L5.96315 5.61952C5.96515 5.48152 6.07665 5.37452 6.21652 5.37289C6.35452 5.37477 6.46503 5.48827 6.46315 5.62627L6.4534 6.33339L6.46202 8.34977H8.27528C8.41328 8.34977 8.52528 8.46177 8.52528 8.59977C8.52528 8.73777 8.4134 8.84977 8.27528 8.84977Z" fill="#FF624B"/>
<path d="M2.95342 8.87799H1.95342C1.81541 8.87799 1.70341 8.76599 1.70341 8.62799C1.70341 8.48999 1.81541 8.37799 1.95342 8.37799H2.95342C3.09142 8.37799 3.20342 8.48999 3.20342 8.62799C3.20342 8.76599 3.09154 8.87799 2.95342 8.87799Z" fill="#FCE575"/>
<path d="M3.19826 11.8832C3.26226 11.8832 3.32626 11.8588 3.37501 11.81L4.00488 11.1801C3.92113 11.0271 3.84538 10.871 3.77763 10.7121C3.76026 10.7225 3.74351 10.7343 3.72863 10.7493L3.02151 11.4565C2.92388 11.5541 2.92388 11.7123 3.02151 11.81C3.07026 11.8588 3.13426 11.8832 3.19826 11.8832Z" fill="#FCE575"/>
<path d="M3.72863 6.50677C3.73801 6.51614 3.74826 6.52377 3.75863 6.53127C3.82576 6.36989 3.90113 6.21114 3.98463 6.05577L3.37501 5.44614C3.27751 5.34852 3.11901 5.34852 3.02151 5.44614C2.92388 5.54377 2.92388 5.70202 3.02151 5.79964L3.72863 6.50677Z" fill="#FCE575"/>
</svg>
