<svg width="32" height="32" viewBox="0 0 32 32" fill="none" xmlns="http://www.w3.org/2000/svg">
<path d="M25.4375 27.7742H6.5625V25.9179C6.5625 22.4617 9.36425 19.6599 12.8205 19.6599H19.1795C22.6357 19.6599 25.4375 22.4617 25.4375 25.9179V27.7742Z" fill="#CCC033"/>
<path d="M16.3205 19.6599H12.8205C9.36425 19.6599 6.5625 22.4617 6.5625 25.9179V27.7742H10.0625V25.9179C10.0625 22.4617 12.8642 19.6599 16.3205 19.6599Z" fill="#99AF17"/>
<path d="M16.3471 24.8955H15.5449C15.3994 24.8955 15.2814 24.7775 15.2814 24.632V22.284H16.6106V24.632C16.6106 24.7776 16.4926 24.8955 16.3471 24.8955Z" fill="#E58D23"/>
<path d="M18.4343 20.7045V15.417H13.4833V20.7045H13.4969L15.946 22.284L18.4473 20.7045H18.4343Z" fill="#FFEACF"/>
<path d="M15.9969 20.7045H15.9833V15.417H13.4833V20.7045H13.4969L15.946 22.284L17.2092 21.4864L15.9969 20.7045Z" fill="#FFD59A"/>
<path d="M23.403 31H8.597V24.3509C8.597 24.0748 8.82088 23.8509 9.097 23.8509H22.903C23.1791 23.8509 23.403 24.0748 23.403 24.3509V31Z" fill="#F9BB32"/>
<path d="M10.5849 13.7079H12.7553V6.14651C12.7553 5.43976 12.1823 4.86676 11.4755 4.86676H10.5848C9.87801 4.86676 9.30501 5.43976 9.30501 6.14651V12.4283C9.30513 13.135 9.87801 13.7079 10.5849 13.7079Z" fill="#8C4C17"/>
<path d="M21.4056 4.21704H20.5386C19.8379 4.21704 19.2699 4.78254 19.2699 5.48004V6.57979C20.643 7.59654 21.5326 9.22404 21.5326 11.0584V13.0518C22.1737 12.9884 22.6745 12.45 22.6745 11.7952V5.48017C22.6745 4.78254 22.1064 4.21704 21.4056 4.21704Z" fill="#8C4C17"/>
<path d="M21.6914 13.342C22.7058 13.342 23.5281 12.5342 23.5281 11.5378C23.5281 10.5413 22.7058 9.73352 21.6914 9.73352C20.677 9.73352 19.8546 10.5413 19.8546 11.5378C19.8546 12.5342 20.677 13.342 21.6914 13.342Z" fill="#FFEACF"/>
<path d="M10.1194 13.9949C11.1338 13.9949 11.9561 13.1871 11.9561 12.1906C11.9561 11.1941 11.1338 10.3864 10.1194 10.3864C9.10498 10.3864 8.28264 11.1941 8.28264 12.1906C8.28264 13.1871 9.10498 13.9949 10.1194 13.9949Z" fill="#FFD59A"/>
<path d="M16.0661 18.614H15.9591C12.8524 18.614 10.3338 16.0955 10.3338 12.9886V10.2426C10.3338 7.13587 12.8523 4.61725 15.9591 4.61725H16.0661C19.1729 4.61725 21.6915 7.13575 21.6915 10.2426V12.9886C21.6914 16.0955 19.1729 18.614 16.0661 18.614Z" fill="#FFEACF"/>
<path d="M12.3267 12.3332V9.56425C12.3267 9.35299 12.3387 9.14462 12.362 8.9395C12.3982 8.62199 12.6753 8.38375 13.0005 8.38375H21.3848C20.6189 6.1925 18.5032 4.61737 16.0125 4.61737C15.7687 4.61737 15.5287 4.633 15.2929 4.66225C15.2933 4.66212 15.2937 4.66187 15.294 4.66162C15.2759 4.66387 15.258 4.66712 15.2399 4.66962C15.18 4.67762 15.1203 4.68612 15.0612 4.696C15.0324 4.70075 15.0039 4.70612 14.9754 4.71137C14.9229 4.72087 14.8707 4.73087 14.8188 4.74175C14.7887 4.74812 14.7587 4.75475 14.7288 4.7615C14.6782 4.773 14.6279 4.78512 14.5779 4.798C14.5485 4.8055 14.5193 4.813 14.4902 4.82087C14.4383 4.835 14.3869 4.85012 14.3357 4.86575C14.3095 4.87362 14.2833 4.88125 14.2573 4.8895C14.1959 4.90912 14.1352 4.93 14.0747 4.9515C14.0597 4.95687 14.0445 4.96162 14.0297 4.96712C13.9545 4.99462 13.8802 5.02375 13.8064 5.05425C13.7873 5.06225 13.7684 5.07087 13.7493 5.07912C13.6954 5.10212 13.6418 5.12562 13.5887 5.15025C13.5622 5.16262 13.536 5.1755 13.5097 5.18825C13.4645 5.21 13.4198 5.23212 13.3753 5.255C13.3472 5.2695 13.3193 5.28437 13.2914 5.29937C13.2493 5.322 13.2075 5.34512 13.166 5.36887C13.1382 5.38475 13.1104 5.40062 13.083 5.417C13.0414 5.44175 13.0003 5.46712 12.9594 5.49275C12.9335 5.509 12.9075 5.525 12.8819 5.54162C12.8368 5.571 12.7925 5.60125 12.7483 5.63187C12.728 5.64587 12.7073 5.6595 12.6872 5.67375C12.6247 5.71825 12.563 5.76387 12.5024 5.81062C12.4835 5.82525 12.4654 5.8405 12.4468 5.85525C12.4045 5.88875 12.3624 5.9225 12.3212 5.95725C12.2965 5.978 12.2725 5.99937 12.2483 6.0205C12.2139 6.0505 12.1797 6.0805 12.146 6.11125C12.1205 6.1345 12.0955 6.15812 12.0705 6.18187C12.039 6.21175 12.0078 6.242 11.9769 6.27262C11.952 6.29737 11.9273 6.32225 11.9028 6.34737C11.8727 6.37837 11.843 6.41 11.8137 6.44162C11.79 6.46712 11.7663 6.4925 11.7432 6.51837C11.7129 6.55225 11.6835 6.58675 11.6542 6.62125C11.6332 6.64587 11.6118 6.67012 11.5913 6.69512C11.5483 6.7475 11.5063 6.80087 11.4652 6.85475C11.4438 6.88275 11.4232 6.91125 11.4024 6.93975C11.3737 6.979 11.3448 7.01825 11.317 7.05825C11.2967 7.08762 11.2773 7.1175 11.2574 7.14725C11.2343 7.182 11.2112 7.21675 11.1888 7.252C11.1688 7.28362 11.1493 7.31562 11.1299 7.34762C11.109 7.38212 11.0884 7.41675 11.0683 7.45162C11.0493 7.4845 11.0307 7.5175 11.0124 7.55087C10.993 7.586 10.9743 7.6215 10.9558 7.65725C10.9383 7.69087 10.9207 7.72437 10.9039 7.75837C10.8855 7.79537 10.8682 7.83275 10.8507 7.87025C10.835 7.9035 10.8192 7.93662 10.8042 7.97025C10.784 8.01562 10.7652 8.06162 10.7463 8.10762C10.7257 8.15775 10.7059 8.20812 10.6867 8.25887C10.6709 8.3005 10.6548 8.34187 10.6402 8.384H10.6407C10.442 8.95225 10.3335 9.56162 10.3335 10.196V12.9685C10.3335 16.0375 12.8282 18.5822 15.9523 18.614C16.9567 18.6242 17.9017 18.3782 18.7239 17.9385C18.4759 17.9692 18.2232 17.9844 17.9663 17.9826C14.8335 17.9615 12.3267 15.4107 12.3267 12.3332Z" fill="#FFD59A"/>
<path d="M12.7981 12.3103C13.1886 12.3103 13.5052 11.9993 13.5052 11.6156C13.5052 11.232 13.1886 10.921 12.7981 10.921C12.4076 10.921 12.091 11.232 12.091 11.6156C12.091 11.9993 12.4076 12.3103 12.7981 12.3103Z" fill="#A56021"/>
<path d="M19.2269 12.3103C19.6175 12.3103 19.9341 11.9993 19.9341 11.6156C19.9341 11.232 19.6175 10.921 19.2269 10.921C18.8364 10.921 18.5198 11.232 18.5198 11.6156C18.5198 11.9993 18.8364 12.3103 19.2269 12.3103Z" fill="#A56021"/>
<path d="M20.768 7.85911H11.232C10.1791 7.85911 9.32564 7.00561 9.32564 5.95274V4.71674C9.32564 3.66386 10.1791 2.81036 11.232 2.81036H20.7681C21.821 2.81036 22.6745 3.66386 22.6745 4.71674V5.95274C22.6745 7.00561 21.8209 7.85911 20.768 7.85911Z" fill="#A56021"/>
<path d="M22.7075 7.0065H9.29253V4.42537C9.29253 2.53363 10.8262 1 12.718 1H19.2822C21.174 1 22.7075 2.53363 22.7075 4.42537V7.0065Z" fill="#E58D23"/>
<path d="M21.7075 4.80037C21.5004 4.80037 21.3325 4.6325 21.3325 4.42537C21.3325 3.29475 20.4127 2.375 19.2821 2.375C19.075 2.375 18.9071 2.20713 18.9071 2C18.9071 1.79288 19.075 1.625 19.2821 1.625C20.8262 1.625 22.0825 2.88125 22.0825 4.42537C22.0825 4.6325 21.9145 4.80037 21.7075 4.80037Z" fill="#FFA730"/>
<path d="M9.30501 7.00647H22.6744V8.04772C22.6744 9.53784 21.4664 10.7458 19.9763 10.7458H12.0031C10.513 10.7458 9.30501 9.53784 9.30501 8.04772V7.00647Z" fill="#FFA730"/>
<path d="M17.6309 5.94012H14.3691C13.875 5.94012 13.4744 5.5395 13.4744 5.04537V5.00687C13.4744 4.51275 13.875 4.11212 14.3691 4.11212H17.6309C18.125 4.11212 18.5256 4.51275 18.5256 5.00687V5.04537C18.5256 5.5395 18.125 5.94012 17.6309 5.94012Z" fill="#FFD551"/>
<path d="M17.2795 27.1748V23.851H14.6209V27.1748C14.842 27.1748 14.842 27.5071 15.0633 27.5071C15.2846 27.5071 15.2846 27.1748 15.5061 27.1748C15.7276 27.1748 15.7276 27.5071 15.949 27.5071C16.1705 27.5071 16.1705 27.1748 16.392 27.1748C16.6139 27.1748 16.6139 27.5071 16.8358 27.5071C17.0577 27.5071 17.0577 27.1748 17.2795 27.1748Z" fill="#FFDF74"/>
<path d="M9.30501 7.00647H22.6744V8.04772C22.6744 9.53784 21.4664 10.7458 19.9763 10.7458H12.0031C10.513 10.7458 9.30501 9.53784 9.30501 8.04772V7.00647Z" fill="#FFA730"/>
<path d="M16.2121 1H12.7122C10.8235 1 9.29253 2.531 9.29253 4.41962V7.0065H12.7925V4.41962C12.7925 2.531 14.3235 1 16.2121 1Z" fill="#BF6C0D"/>
<path d="M9.30513 7.00647H22.7201V8.04309C22.7201 9.53572 21.5101 10.7458 20.0174 10.7458H12.0078C10.5151 10.7458 9.30501 9.53584 9.30501 8.04309V7.00647H9.30513Z" fill="#FFA730"/>
<path d="M12.805 8.04772V7.00647H9.30501V8.04772C9.30501 9.53784 10.513 10.7458 12.0031 10.7458H15.5031C14.013 10.7458 12.805 9.53784 12.805 8.04772Z" fill="#E58D23"/>
<path d="M14.8875 10.0012C15.5088 10.0012 16.0125 9.49754 16.0125 8.87622C16.0125 8.2549 15.5088 7.75122 14.8875 7.75122C14.2662 7.75122 13.7625 8.2549 13.7625 8.87622C13.7625 9.49754 14.2662 10.0012 14.8875 10.0012Z" fill="#E58D23"/>
<path d="M13.4969 19.6599H11.1353C10.9356 19.6599 10.8088 19.8719 10.9043 20.0459L12.7986 23.501C12.8649 23.6219 13.0163 23.6702 13.1421 23.6105L15.946 22.284L13.7368 20.8593C13.587 20.7628 13.4969 20.5987 13.4969 20.4227V19.6599Z" fill="#BF6C0D"/>
<path d="M18.4472 19.6599H20.8591C21.063 19.6599 21.1925 19.8719 21.0951 20.0459L19.1611 23.4997C19.0927 23.6218 18.9394 23.6707 18.811 23.6112L15.946 22.284L18.2031 20.8588C18.3554 20.7627 18.4472 20.5972 18.4472 20.4194V19.6599Z" fill="#BF6C0D"/>
<path d="M12.4043 20.0459C12.3089 19.8719 12.4358 19.6599 12.6353 19.6599H11.1353C10.9356 19.6599 10.8088 19.8719 10.9043 20.0459L12.7986 23.501C12.8649 23.6219 13.0163 23.6702 13.1421 23.6105L14.1081 23.1535L12.4043 20.0459Z" fill="#A56021"/>
<path d="M12.597 23.8509H9.097C8.82088 23.8509 8.597 24.0748 8.597 24.3509V31H12.097V24.3509C12.097 24.0748 12.3209 23.8509 12.597 23.8509Z" fill="#DB9C2E"/>
</svg>
