<svg width="32" height="32" viewBox="0 0 32 32" fill="none" xmlns="http://www.w3.org/2000/svg">
<path d="M24.0805 28.1335H7.45551V1.87152C7.45551 1.45727 7.79125 1.12152 8.2055 1.12152H23.3305C23.7448 1.12152 24.0805 1.45727 24.0805 1.87152V28.1335Z" fill="#A56021"/>
<path d="M23.0806 10.2525C22.8735 10.2525 22.7056 10.0846 22.7056 9.8775V2.3775C22.7056 2.17038 22.8735 2.0025 23.0806 2.0025C23.2878 2.0025 23.4556 2.17038 23.4556 2.3775V9.8775C23.4556 10.0846 23.2878 10.2525 23.0806 10.2525Z" fill="#BF6C0D"/>
<path d="M27.518 30.8785H4.01801C3.74188 30.8785 3.51801 30.6547 3.51801 30.3785V28.6335C3.51801 28.3574 3.74188 28.1335 4.01801 28.1335H27.518C27.7941 28.1335 28.018 28.3574 28.018 28.6335V30.3785C28.018 30.6547 27.7941 30.8785 27.518 30.8785Z" fill="#E58D23"/>
<path d="M22.5159 15.3775C22.9301 15.3775 23.2659 15.0417 23.2659 14.6275C23.2659 14.2133 22.9301 13.8775 22.5159 13.8775C22.1017 13.8775 21.7659 14.2133 21.7659 14.6275C21.7659 15.0417 22.1017 15.3775 22.5159 15.3775Z" fill="#F9BB32"/>
<path d="M11.7055 1.12152H8.2055C7.79125 1.12152 7.45551 1.45727 7.45551 1.87152V28.1335H10.9555V1.87152C10.9555 1.45727 11.2914 1.12152 11.7055 1.12152Z" fill="#8C4C17"/>
<path d="M10.1655 25.8229V15.9904C10.1655 15.7284 10.3779 15.516 10.6399 15.516H20.887C21.149 15.516 21.3614 15.7284 21.3614 15.9904V25.8229C21.3614 26.0849 21.149 26.2972 20.887 26.2972H10.6397C10.3779 26.2972 10.1655 26.0849 10.1655 25.8229Z" fill="#E58D23"/>
<path d="M10.1113 13.2291V3.39662C10.1113 3.13462 10.3236 2.92224 10.5856 2.92224H20.8328C21.0948 2.92224 21.3071 3.13462 21.3071 3.39662V13.2291C21.3071 13.4911 21.0948 13.7035 20.8328 13.7035H10.5856C10.3236 13.7034 10.1113 13.491 10.1113 13.2291Z" fill="#E58D23"/>
<path d="M11.6113 4.64649C11.6113 4.38449 11.8236 4.17212 12.0856 4.17212H21.3071V3.39649C21.3071 3.13449 21.0948 2.92212 20.8328 2.92212H10.5856C10.3236 2.92212 10.1113 3.13449 10.1113 3.39649V13.229C10.1113 13.491 10.3236 13.7034 10.5856 13.7034H11.6113V4.64649Z" fill="#BF6C0D"/>
<path d="M11.6655 17.4904C11.6655 17.2284 11.8779 17.016 12.1399 17.016H21.3614V15.9904C21.3614 15.7284 21.149 15.516 20.887 15.516H10.6397C10.3777 15.516 10.1654 15.7284 10.1654 15.9904V25.8229C10.1654 26.0849 10.3777 26.2972 10.6397 26.2972H11.6654V17.4904H11.6655Z" fill="#BF6C0D"/>
<path d="M10.9555 2.92224H10.5856C10.3236 2.92224 10.1113 3.13462 10.1113 3.39662V13.2291C10.1113 13.4911 10.3236 13.7035 10.5856 13.7035H10.9555V2.92224Z" fill="#A56021"/>
<path d="M10.9555 15.516H10.6397C10.3777 15.516 10.1654 15.7284 10.1654 15.9904V25.8229C10.1654 26.0849 10.3777 26.2972 10.6397 26.2972H10.9555V15.516Z" fill="#A56021"/>
<path d="M7.01801 30.3785V28.6335C7.01801 28.3574 7.24188 28.1335 7.51801 28.1335H4.01801C3.74188 28.1335 3.51801 28.3574 3.51801 28.6335V30.3785C3.51801 30.6547 3.74188 30.8785 4.01801 30.8785H7.51801C7.24188 30.8785 7.01801 30.6547 7.01801 30.3785Z" fill="#BF6C0D"/>
<path d="M13.1113 6.70392C13.7326 6.70392 14.2363 6.20024 14.2363 5.57892C14.2363 4.9576 13.7326 4.45392 13.1113 4.45392C12.4899 4.45392 11.9863 4.9576 11.9863 5.57892C11.9863 6.20024 12.4899 6.70392 13.1113 6.70392Z" fill="#BF6C0D"/>
<path d="M27.6908 30.8289H16.5233C16.0863 30.8289 15.732 30.4746 15.732 30.0376V19.6201C15.732 19.1831 16.0863 18.8289 16.5233 18.8289H27.6908C28.1278 18.8289 28.482 19.1831 28.482 19.6201V30.0376C28.482 30.4746 28.1278 30.8289 27.6908 30.8289Z" fill="#F9BB32"/>
<path d="M27.3639 28.6639H27.1509V29.6756C27.1509 29.7114 27.1161 29.7405 27.0733 29.7405H26.3848C26.3419 29.7405 26.3071 29.7115 26.3071 29.6756V28.6639H26.0916C26.0664 28.6639 26.0531 28.6389 26.0701 28.6232L26.7139 28.0314C26.7174 28.0281 26.7225 28.0262 26.7278 28.0262C26.733 28.0262 26.7381 28.0281 26.7416 28.0314L27.3854 28.6232C27.4024 28.6389 27.3891 28.6639 27.3639 28.6639Z" fill="#A56021"/>
<path d="M28.0385 25.7486C27.8314 25.7486 27.6635 25.5807 27.6635 25.3736V19.6593C27.6635 19.4522 27.8314 19.2843 28.0385 19.2843C28.2456 19.2843 28.4135 19.4522 28.4135 19.6593V25.3736C28.4135 25.5807 28.2456 25.7486 28.0385 25.7486Z" fill="#FFC34C"/>
<path d="M23.6719 28.8447H21.0085C20.8705 28.8447 20.7585 28.7327 20.7585 28.5947C20.7585 28.4567 20.8705 28.3447 21.0085 28.3447H23.6719C23.8099 28.3447 23.9219 28.4567 23.9219 28.5947C23.9219 28.7327 23.8099 28.8447 23.6719 28.8447Z" fill="#A56021"/>
<path d="M23.6719 29.75H21.0085C20.8705 29.75 20.7585 29.638 20.7585 29.5C20.7585 29.362 20.8705 29.25 21.0085 29.25H23.6719C23.8099 29.25 23.9219 29.362 23.9219 29.5C23.9219 29.638 23.8099 29.75 23.6719 29.75Z" fill="#A56021"/>
<path d="M18.6496 29.7725H16.3964C16.2938 29.7725 16.2105 29.6893 16.2105 29.5866V28.4846C16.2105 28.382 16.2938 28.2988 16.3964 28.2988H18.6496C18.7523 28.2988 18.8355 28.382 18.8355 28.4846V29.5866C18.8355 29.6894 18.7524 29.7725 18.6496 29.7725Z" fill="#A56021"/>
<path d="M18.8045 21.5341C19.4258 21.5341 19.9295 21.0304 19.9295 20.4091C19.9295 19.7878 19.4258 19.2841 18.8045 19.2841C18.1832 19.2841 17.6795 19.7878 17.6795 20.4091C17.6795 21.0304 18.1832 21.5341 18.8045 21.5341Z" fill="#DB9C2E"/>
<path d="M17.2841 30.0257V19.6324C17.2841 19.1888 17.633 18.829 18.0635 18.829H16.5112C16.0809 18.829 15.7319 19.1887 15.7319 19.6324V30.0257C15.7319 30.4693 16.0807 30.829 16.5112 30.829H18.0634C17.6331 30.8289 17.2841 30.4693 17.2841 30.0257Z" fill="#DB9C2E"/>
<path d="M16.3936 28.2989C16.2925 28.2989 16.2106 28.3834 16.2106 28.4876V29.5839C16.2106 29.6881 16.2926 29.7726 16.3936 29.7726H17.2841V28.299H16.3936V28.2989Z" fill="#8C4C17"/>
<path d="M23.9574 24.147V18.829H20.5678V24.147C20.8498 24.147 20.8498 24.6788 21.1318 24.6788C21.414 24.6788 21.414 24.147 21.6964 24.147C21.9788 24.147 21.9788 24.6788 22.2612 24.6788C22.5435 24.6788 22.5435 24.147 22.826 24.147C23.1089 24.147 23.1089 24.6788 23.3918 24.6788C23.6745 24.6788 23.6745 24.147 23.9574 24.147Z" fill="#FFDF74"/>
<path d="M23.5138 24.1193C23.3758 24.1193 23.2638 24.0073 23.2638 23.8693V19.2861C23.2638 19.1481 23.3758 19.0361 23.5138 19.0361C23.6518 19.0361 23.7638 19.1481 23.7638 19.2861V23.8693C23.7638 24.0073 23.6519 24.1193 23.5138 24.1193Z" fill="#FFF4C1"/>
</svg>
