<svg width="32" height="32" viewBox="0 0 32 32" fill="none" xmlns="http://www.w3.org/2000/svg">
<path d="M20.5107 25.2407V24.073H30.341C30.6582 24.073 30.9153 24.3301 30.9153 24.6474V24.6664C30.9153 24.9836 30.6582 25.2407 30.341 25.2407H20.5107Z" fill="#E58D23"/>
<path d="M24.0107 24.573H30.9078C30.871 24.2912 30.6327 24.073 30.341 24.073H20.5107V25.2407H24.0107V24.573Z" fill="#BF6C0D"/>
<path d="M6.81132 5.31512H5.6552V18.2054H6.81132V5.31512Z" fill="#F9BB32"/>
<path d="M6.4052 5.31512H5.6552V18.2054H6.4052V5.31512Z" fill="#DB9C2E"/>
<path d="M17.0092 18.2988L16.6714 18.4959L14.369 14.4679L14.7069 14.2708L17.0092 18.2988Z" fill="#EACF32"/>
<path d="M16.8691 25.2115H2.73511C1.72999 25.2115 0.915237 24.3968 0.915237 23.3916V18.2053H16.869V25.2115H16.8691Z" fill="#FF624B"/>
<path d="M5.65525 18.2052H0.915375V15.6512C0.915375 14.7956 1.609 14.102 2.46462 14.102H5.65537V18.2052H5.65525Z" fill="#FF624B"/>
<path d="M8.31409 18.2052V15.8699H11.792C12.2336 15.8699 12.5916 16.2279 12.5916 16.6695V17.4057C12.5916 17.8474 12.2336 18.2054 11.792 18.2054H8.31409V18.2052Z" fill="#FFA730"/>
<path d="M18.0524 12.4485L14.0726 5.63125C13.9583 5.43525 13.7501 5.31512 13.5251 5.31512H5.65513H4.26788C3.91675 5.31512 3.63213 5.60325 3.63213 5.9585C3.63213 6.31375 3.91675 6.60187 4.26788 6.60187H5.65525H6.92688H12.7994C13.0243 6.60187 13.2324 6.72212 13.3469 6.918L16.7808 12.8003C16.8386 12.8994 16.8691 13.0123 16.8691 13.1271V16.9053V17.5725V18.1839V25.2114H17.6408C17.9169 25.2114 18.1408 24.9871 18.1408 24.7104V18.1919V17.5723V12.775C18.1408 12.6604 18.1103 12.5476 18.0524 12.4485Z" fill="#FF624B"/>
<path d="M20.5108 22.4137H18.1408V24.0729H20.5108V22.4137Z" fill="#DB9C2E"/>
<path d="M29.7866 24.1036H22.1153C21.8175 24.1036 21.576 23.8621 21.576 23.5643V16.518C21.576 16.2201 21.8175 15.9786 22.1153 15.9786H29.7866C30.0845 15.9786 30.326 16.2201 30.326 16.518V23.5643C30.326 23.8621 30.0846 24.1036 29.7866 24.1036Z" fill="#CCC033"/>
<path d="M29.7392 19.8167C29.6012 19.8167 29.4892 19.7047 29.4892 19.5667V16.5575C29.4892 16.4195 29.6012 16.3075 29.7392 16.3075C29.8772 16.3075 29.9892 16.4195 29.9892 16.5575V19.5667C29.9892 19.7049 29.8773 19.8167 29.7392 19.8167Z" fill="#EACF32"/>
<path d="M27.0705 19.5794V15.9786H24.7443V19.5794C24.9378 19.5794 24.9378 19.9395 25.1313 19.9395C25.325 19.9395 25.325 19.5794 25.5188 19.5794C25.7125 19.5794 25.7125 19.9395 25.9063 19.9395C26.1001 19.9395 26.1001 19.5794 26.2939 19.5794C26.488 19.5794 26.488 19.9395 26.6821 19.9395C26.8763 19.9395 26.8764 19.5794 27.0705 19.5794Z" fill="#FFDF74"/>
<path d="M26.6587 19.5626C26.5207 19.5626 26.4087 19.4506 26.4087 19.3126V16.3798C26.4087 16.2418 26.5207 16.1298 26.6587 16.1298C26.7967 16.1298 26.9087 16.2418 26.9087 16.3798V19.3126C26.9087 19.4507 26.7969 19.5626 26.6587 19.5626Z" fill="#FFF4C1"/>
<path d="M29.7324 22.7704H27.9046C27.8009 22.7704 27.7171 22.6864 27.7171 22.5829C27.7171 22.4794 27.8009 22.3954 27.9046 22.3954H29.7324C29.8361 22.3954 29.9199 22.4794 29.9199 22.5829C29.9199 22.6864 29.8361 22.7704 29.7324 22.7704Z" fill="#A56021"/>
<path d="M29.7324 23.3834H27.9046C27.8009 23.3834 27.7171 23.2994 27.7171 23.1959C27.7171 23.0924 27.8009 23.0084 27.9046 23.0084H29.7324C29.8361 23.0084 29.9199 23.0924 29.9199 23.1959C29.9199 23.2994 29.8361 23.3834 29.7324 23.3834Z" fill="#A56021"/>
<path d="M29.7866 15.9786H22.1153C21.8175 15.9786 21.576 15.7371 21.576 15.4393V8.39301C21.576 8.09514 21.8175 7.85364 22.1153 7.85364H29.7866C30.0845 7.85364 30.326 8.09514 30.326 8.39301V15.4393C30.326 15.7371 30.0846 15.9786 29.7866 15.9786Z" fill="#F9BB32"/>
<path d="M29.7392 11.6917C29.6012 11.6917 29.4892 11.5797 29.4892 11.4417V8.4325C29.4892 8.2945 29.6012 8.1825 29.7392 8.1825C29.8772 8.1825 29.9892 8.2945 29.9892 8.4325V11.4417C29.9892 11.5799 29.8773 11.6917 29.7392 11.6917Z" fill="#FFC34C"/>
<path d="M27.0705 11.4544V7.85364H24.7443V11.4544C24.9378 11.4544 24.9378 11.8145 25.1313 11.8145C25.325 11.8145 25.325 11.4544 25.5188 11.4544C25.7125 11.4544 25.7125 11.8145 25.9063 11.8145C26.1001 11.8145 26.1001 11.4544 26.2939 11.4544C26.488 11.4544 26.488 11.8145 26.6821 11.8145C26.8763 11.8145 26.8764 11.4544 27.0705 11.4544Z" fill="#FFDF74"/>
<path d="M26.6587 11.4376C26.5207 11.4376 26.4087 11.3256 26.4087 11.1876V8.25482C26.4087 8.11682 26.5207 8.00482 26.6587 8.00482C26.7967 8.00482 26.9087 8.11682 26.9087 8.25482V11.1876C26.9087 11.3257 26.7969 11.4376 26.6587 11.4376Z" fill="#FFF4C1"/>
<path d="M29.7324 14.6454H27.9046C27.8009 14.6454 27.7171 14.5614 27.7171 14.4579C27.7171 14.3544 27.8009 14.2704 27.9046 14.2704H29.7324C29.8361 14.2704 29.9199 14.3544 29.9199 14.4579C29.9199 14.5614 29.8361 14.6454 29.7324 14.6454Z" fill="#A56021"/>
<path d="M29.7324 15.2584H27.9046C27.8009 15.2584 27.7171 15.1744 27.7171 15.0709C27.7171 14.9674 27.8009 14.8834 27.9046 14.8834H29.7324C29.8361 14.8834 29.9199 14.9674 29.9199 15.0709C29.9199 15.1744 29.8361 15.2584 29.7324 15.2584Z" fill="#A56021"/>
<path d="M30.7183 7.86236H23.9512C23.7488 7.86236 23.5848 7.69836 23.5848 7.49599V3.85386C23.5848 3.65149 23.7488 3.48749 23.9512 3.48749H30.7183C30.9207 3.48749 31.0847 3.65149 31.0847 3.85386V7.49599C31.0847 7.69836 30.9207 7.86236 30.7183 7.86236Z" fill="#FF9079"/>
<path d="M30.5817 5.91951C30.4437 5.91951 30.3317 5.80751 30.3317 5.66951V4.04913C30.3317 3.91113 30.4437 3.79913 30.5817 3.79913C30.7197 3.79913 30.8317 3.91113 30.8317 4.04913V5.66951C30.8317 5.80763 30.7197 5.91951 30.5817 5.91951Z" fill="#FFC34C"/>
<path d="M28.2942 5.42624V3.48737H26.3003V5.42624C26.4662 5.42624 26.4662 5.62012 26.632 5.62012C26.7982 5.62012 26.7982 5.42624 26.9642 5.42624C27.1303 5.42624 27.1303 5.62012 27.2963 5.62012C27.4624 5.62012 27.4624 5.42624 27.6285 5.42624C27.7949 5.42624 27.7949 5.62012 27.9613 5.62012C28.1277 5.62012 28.1278 5.42624 28.2942 5.42624Z" fill="#FFDF74"/>
<path d="M27.9412 5.30402C27.8032 5.30402 27.6912 5.19202 27.6912 5.05402V3.86652C27.6912 3.72852 27.8032 3.61652 27.9412 3.61652C28.0792 3.61652 28.1912 3.72852 28.1912 3.86652V5.05402C28.1912 5.19202 28.0793 5.30402 27.9412 5.30402Z" fill="#FFF4C1"/>
<path d="M30.576 7.12958H29.0093C28.9403 7.12958 28.8843 7.07358 28.8843 7.00458C28.8843 6.93558 28.9403 6.87958 29.0093 6.87958H30.576C30.645 6.87958 30.701 6.93558 30.701 7.00458C30.701 7.07358 30.645 7.12958 30.576 7.12958Z" fill="#A56021"/>
<path d="M30.576 7.45966H29.0093C28.9403 7.45966 28.8843 7.40366 28.8843 7.33466C28.8843 7.26566 28.9403 7.20966 29.0093 7.20966H30.576C30.645 7.20966 30.701 7.26566 30.701 7.33466C30.701 7.40366 30.645 7.45966 30.576 7.45966Z" fill="#A56021"/>
<path d="M8.94201 18.2036H6.81126V12.0724C6.81126 11.5891 7.20301 11.1974 7.68626 11.1974H8.94201C9.42526 11.1974 9.81701 11.5891 9.81701 12.0724V17.3286C9.81701 17.8119 9.42526 18.2036 8.94201 18.2036Z" fill="#E58D23"/>
<path d="M16.0718 14.1795L13.6083 15.6161C13.4592 15.7031 13.2684 15.6515 13.1823 15.5009C13.0962 15.3503 13.1473 15.1576 13.2964 15.0706L15.7599 13.634C15.909 13.547 16.0998 13.5986 16.1859 13.7493C16.272 13.8999 16.2209 14.0925 16.0718 14.1795Z" fill="#CCC033"/>
<path d="M5.65524 14.133V14.102H2.46449C1.60886 14.102 0.915237 14.7956 0.915237 15.6512V18.2054H4.41524V15.6512C4.41536 14.9015 4.94786 14.2764 5.65524 14.133Z" fill="#FF4B34"/>
<path d="M4.41537 23.3916V18.2053H0.915375V23.3916C0.915375 24.3968 1.73012 25.2115 2.73525 25.2115H6.23525C5.23012 25.2115 4.41537 24.3968 4.41537 23.3916Z" fill="#FF4B34"/>
<path d="M5.15347 28.5072C6.67226 28.5072 7.90347 27.276 7.90347 25.7572C7.90347 24.2384 6.67226 23.0072 5.15347 23.0072C3.63469 23.0072 2.40347 24.2384 2.40347 25.7572C2.40347 27.276 3.63469 28.5072 5.15347 28.5072Z" fill="#BF6C0D"/>
<path d="M13.246 28.5126C14.7648 28.5126 15.996 27.2814 15.996 25.7626C15.996 24.2439 14.7648 23.0126 13.246 23.0126C11.7272 23.0126 10.496 24.2439 10.496 25.7626C10.496 27.2814 11.7272 28.5126 13.246 28.5126Z" fill="#BF6C0D"/>
<path d="M7.13212 5.9585C7.13212 5.60312 7.41675 5.31512 7.76788 5.31512H5.65525H4.26788C3.91675 5.31512 3.63213 5.60325 3.63213 5.9585C3.63213 6.31387 3.91675 6.60187 4.26788 6.60187H5.65525H6.92688H7.76788C7.41675 6.60187 7.13212 6.31387 7.13212 5.9585Z" fill="#FF4B34"/>
<path d="M9.06414 11.2069C9.02414 11.2013 8.98364 11.1974 8.94202 11.1974H7.68627C7.20301 11.1974 6.81126 11.5891 6.81126 12.0724V18.2036H8.31127V12.0724C8.31127 11.6306 8.63889 11.2664 9.06414 11.2069Z" fill="#BF6C0D"/>
<path d="M3.90347 25.7572C3.90347 24.4986 4.74935 23.4382 5.90347 23.1116C5.66497 23.0441 5.4136 23.0072 5.15347 23.0072C3.63472 23.0072 2.40347 24.2385 2.40347 25.7572C2.40347 27.276 3.63472 28.5072 5.15347 28.5072C5.4136 28.5072 5.66497 28.4703 5.90347 28.4028C4.74935 28.0762 3.90347 27.0158 3.90347 25.7572Z" fill="#A56021"/>
<path d="M11.996 25.7626C11.996 24.504 12.8419 23.4436 13.996 23.117C13.7575 23.0495 13.5061 23.0126 13.246 23.0126C11.7272 23.0126 10.496 24.2439 10.496 25.7626C10.496 27.2814 11.7272 28.5126 13.246 28.5126C13.5061 28.5126 13.7575 28.4758 13.996 28.4083C12.8419 28.0816 11.996 27.0213 11.996 25.7626Z" fill="#A56021"/>
<path d="M5.15347 27.1322C5.91286 27.1322 6.52847 26.5166 6.52847 25.7572C6.52847 24.9978 5.91286 24.3822 5.15347 24.3822C4.39408 24.3822 3.77847 24.9978 3.77847 25.7572C3.77847 26.5166 4.39408 27.1322 5.15347 27.1322Z" fill="#F9BB32"/>
<path d="M13.246 27.1376C14.0054 27.1376 14.621 26.522 14.621 25.7626C14.621 25.0032 14.0054 24.3876 13.246 24.3876C12.4866 24.3876 11.871 25.0032 11.871 25.7626C11.871 26.522 12.4866 27.1376 13.246 27.1376Z" fill="#F9BB32"/>
<path d="M14.1824 15.2509C14.0963 15.1002 14.1474 14.9076 14.2965 14.8206L16.1705 13.7277C16.0789 13.5949 15.9013 13.5516 15.7599 13.634L13.2964 15.0706C13.1473 15.1576 13.0962 15.3502 13.1823 15.5009C13.2684 15.6515 13.459 15.7031 13.6083 15.6161L14.1977 15.2724C14.1928 15.2651 14.1869 15.2586 14.1824 15.2509Z" fill="#99AF17"/>
<path d="M19.1408 22.4137H18.1408V24.0729H19.1408V22.4137Z" fill="#BF6C0D"/>
<path d="M21.609 25.2407H20.4528V12.9664C20.4528 12.6514 20.7082 12.396 21.0232 12.396H21.0386C21.3536 12.396 21.609 12.6514 21.609 12.9664V25.2407Z" fill="#BF6C0D"/>
<path d="M21.4058 12.5334C21.3063 12.4489 21.1792 12.396 21.0386 12.396H21.0232C20.7082 12.396 20.4528 12.6514 20.4528 12.9664V25.2407H21.2028V12.9664C21.2028 12.792 21.2827 12.638 21.4058 12.5334Z" fill="#A56021"/>
<path d="M6.03021 22.7512C6.65153 22.7512 7.15521 22.2475 7.15521 21.6262C7.15521 21.0048 6.65153 20.5012 6.03021 20.5012C5.40889 20.5012 4.90521 21.0048 4.90521 21.6262C4.90521 22.2475 5.40889 22.7512 6.03021 22.7512Z" fill="#FF4B34"/>
<path d="M16.6408 24.448C16.4337 24.448 16.2658 24.2801 16.2658 24.073V19.3469C16.2658 19.1397 16.4337 18.9719 16.6408 18.9719C16.8479 18.9719 17.0158 19.1397 17.0158 19.3469V24.073C17.0158 24.2801 16.8479 24.448 16.6408 24.448Z" fill="#FF9079"/>
<path d="M4.77847 25.7572C4.77847 25.1756 5.1421 24.6783 5.65347 24.4777C5.49835 24.4168 5.32997 24.3822 5.15347 24.3822C4.39535 24.3822 3.77847 24.999 3.77847 25.7572C3.77847 26.5155 4.39535 27.1322 5.15347 27.1322C5.32997 27.1322 5.49835 27.0976 5.65347 27.0367C5.1421 26.8361 4.77847 26.3388 4.77847 25.7572Z" fill="#DB9C2E"/>
<path d="M12.871 25.7626C12.871 25.1809 13.2346 24.6836 13.746 24.4831C13.5907 24.4223 13.4225 24.3876 13.246 24.3876C12.4879 24.3876 11.871 25.0044 11.871 25.7626C11.871 26.5209 12.4879 27.1376 13.246 27.1376C13.4225 27.1376 13.5907 27.103 13.746 27.0421C13.2346 26.8415 12.871 26.3443 12.871 25.7626Z" fill="#DB9C2E"/>
<path d="M23.076 23.5643V16.518C23.076 16.2201 23.3175 15.9786 23.6153 15.9786H22.1153C21.8175 15.9786 21.576 16.2201 21.576 16.518V23.5643C21.576 23.8621 21.8175 24.1036 22.1153 24.1036H23.6153C23.3175 24.1036 23.076 23.8621 23.076 23.5643Z" fill="#99AF17"/>
<path d="M23.076 15.4393V8.39301C23.076 8.09514 23.3175 7.85364 23.6153 7.85364H22.1153C21.8175 7.85364 21.576 8.09514 21.576 8.39301V15.4393C21.576 15.7371 21.8175 15.9786 22.1153 15.9786H23.6153C23.3175 15.9786 23.076 15.7371 23.076 15.4393Z" fill="#DB9C2E"/>
<path d="M25.0846 7.49599V3.85386C25.0846 3.65149 25.2486 3.48749 25.451 3.48749H23.951C23.7486 3.48749 23.5846 3.65161 23.5846 3.85386V7.49599C23.5846 7.69836 23.7486 7.86236 23.951 7.86236H25.451C25.2487 7.86236 25.0846 7.69836 25.0846 7.49599Z" fill="#FF624B"/>
<path d="M23.5793 23.3884H22.0312C21.9612 23.3884 21.9045 23.3316 21.9045 23.2617V22.5174C21.9045 22.4474 21.9613 22.3907 22.0312 22.3907H23.5793C23.6493 22.3907 23.7059 22.4475 23.7059 22.5174V23.2617C23.706 23.3316 23.6493 23.3884 23.5793 23.3884Z" fill="#EACF32"/>
<path d="M23.5793 15.2634H22.0312C21.9612 15.2634 21.9045 15.2066 21.9045 15.1367V14.3924C21.9045 14.3224 21.9613 14.2657 22.0312 14.2657H23.5793C23.6493 14.2657 23.7059 14.3225 23.7059 14.3924V15.1367C23.706 15.2066 23.6493 15.2634 23.5793 15.2634Z" fill="#A56021"/>
<path d="M25.3243 7.47726H23.9523C23.9048 7.47726 23.8661 7.43876 23.8661 7.39113V7.02601C23.8661 6.97851 23.9046 6.93988 23.9523 6.93988H25.3243C25.3718 6.93988 25.4104 6.97838 25.4104 7.02601V7.39113C25.4103 7.43876 25.3718 7.47726 25.3243 7.47726Z" fill="#FF624B"/>
<path d="M23.076 22.3905H22.0312C21.9612 22.3905 21.9045 22.4473 21.9045 22.5173V23.2616C21.9045 23.3316 21.9613 23.3883 22.0312 23.3883H23.076V22.3905Z" fill="#CCC033"/>
<path d="M23.076 14.2654H22.0312C21.9612 14.2654 21.9045 14.3222 21.9045 14.3922V15.1367C21.9045 15.2067 21.9613 15.2633 22.0312 15.2633H23.076V14.2654Z" fill="#8C4C17"/>
<path d="M25.0846 7.47725V6.94H23.9522C23.9047 6.94 23.8662 6.9785 23.8662 7.026V7.39113C23.8662 7.43863 23.9047 7.47725 23.9522 7.47725H25.0846Z" fill="#FF4B34"/>
</svg>
