<svg width="88" height="87" viewBox="0 0 88 87" fill="none" xmlns="http://www.w3.org/2000/svg">
<path d="M57.9582 65.01H0.77063V77.0448H57.9582V65.01Z" fill="#767676"/>
<path d="M26.0271 68.6401H10.2791V72.9717H26.0271V68.6401Z" fill="#E5E5E5"/>
<path d="M3.00792 68.6401H0.77063V72.9717H3.00792V68.6401Z" fill="white"/>
<path d="M49.0836 68.6401H33.3356V72.9717H49.0836V68.6401Z" fill="#E5E5E5"/>
<path d="M57.9581 68.6401H56.0316V72.9717H57.9581V68.6401Z" fill="white"/>
<path d="M18.5322 41.4204V46.1826H15.4373V41.4204H5.8418V62.6105H28.3638V41.4204H18.5322Z" fill="#767676"/>
<path d="M18.5322 18.0276V22.7898H15.4373V18.0276H5.8418V39.2177H28.3638V18.0276H18.5322Z" fill="#767676"/>
<path d="M45.2429 22.7898V27.5521H42.148V22.7898H32.5649V43.9799H55.0745V22.7898H45.2429Z" fill="#58E0D9"/>
<path d="M18.5322 41.4204H15.4373V46.1826H18.5322V41.4204Z" fill="#E5E5E5"/>
<path d="M18.6565 18.0276H15.5616V22.7898H18.6565V18.0276Z" fill="#E5E5E5"/>
<path d="M45.2429 22.7898H42.148V27.5521H45.2429V22.7898Z" fill="#E5E5E5"/>
<path d="M64.3966 29.5332L51.8181 28.9057C51.8181 28.9057 47.07 28.4257 46.4237 31.416C45.8147 34.2709 47.3932 35.366 47.3932 35.366C47.3932 35.366 58.5797 39.0577 61.8113 39.0577C65.0305 39.0577 64.3966 29.5332 64.3966 29.5332Z" fill="white"/>
<path d="M61.1774 37.3596L49.7672 35.403C49.7672 35.403 47.1073 34.8493 47.4305 32.6958C47.7537 30.5423 49.6926 30.3454 49.6926 30.3454L59.922 31.5268L70.9469 22.5807C70.9469 22.5807 74.9119 20.378 76.1796 22.113C77.4474 23.8358 85.6508 37.9256 85.6508 37.9256C85.6508 37.9256 88.3107 42.6756 86.1232 47.1055C83.9356 51.5355 84.2587 60.7647 84.2587 60.7647C84.2587 60.7647 86.7571 71.7535 86.6825 72.4549C86.6079 73.1563 86.4463 76.0604 83.4384 76.2573C80.4305 76.4542 79.3989 73.9439 79.3989 73.9439L77.0621 60.8754L76.9378 44.1153L70.2384 33.2865C70.2384 33.2865 69.4056 32.622 68.1378 33.2865C66.8452 33.9509 63.5514 37.0519 61.1774 37.3596Z" fill="#767676"/>
<path d="M74.8497 45.1366L66.6463 52.7537C66.6463 52.7537 65.0181 54.0827 64.9062 55.1902C64.7819 56.2854 63.1661 73.4024 63.1661 73.4024C63.1661 73.4024 64.3096 76.208 66.3356 76.2819C68.3616 76.3557 70.139 73.8331 70.139 73.8331L71.6802 57.8236L74.8497 55.0426V45.1366Z" fill="#777777"/>
<path d="M66.1989 21.6946C69.4389 21.6946 72.0655 19.0942 72.0655 15.8864C72.0655 12.6786 69.4389 10.0782 66.1989 10.0782C62.9588 10.0782 60.3322 12.6786 60.3322 15.8864C60.3322 19.0942 62.9588 21.6946 66.1989 21.6946Z" fill="#767676"/>
<path d="M56.765 18.2122L57.2125 19.3074L61.8113 17.7692L61.1029 16.071L56.765 18.2122Z" fill="#767676"/>
</svg>
