<svg width="89" height="88" viewBox="0 0 89 88" fill="none" xmlns="http://www.w3.org/2000/svg">
<path d="M81.5711 63.2379L44.5537 85.9124L44.0513 43.8555L81.5711 22.1766V63.2379Z" fill="#58E0D9"/>
<path d="M7.52014 22.1766L44.9589 0.802917L81.571 22.1766L44.0513 43.8555L44.5537 85.2219L7.52014 61.2467V22.1766Z" fill="#767676"/>
<path d="M59.983 45.911L63.4028 42.2496L66.9846 42.5387V31.0569L28.7517 9.15329L23.225 12.8307L60.2424 34.5095L59.983 45.911Z" fill="#E5E5E5"/>
<path d="M9.22189 53.8117H11.2316L11.4585 61.4876L14.1813 63.1095L14.4244 51.9168L9.22189 53.073V53.8117Z" fill="#E5E5E5"/>
<path d="M15.9479 57.4248H17.9576L18.1845 65.1007L20.9074 66.7226L21.1505 55.5299L15.9479 56.6861V57.4248Z" fill="#E5E5E5"/>
</svg>
