<svg width="129" height="128" viewBox="0 0 129 128" fill="none" xmlns="http://www.w3.org/2000/svg">
<path d="M29.9454 31.8116H30.4373H85.1569V46.5937C85.1569 46.5937 91.115 46.1749 100.994 47.2497C100.994 47.2497 107.388 54.578 112.011 56.6299C116.634 58.6818 120.569 57.0207 124.602 60.1474C124.602 60.1474 127.061 63.3718 126.766 70.7001H128.044V75.5856C128.044 75.5856 126.962 79.9825 122.831 80.178C118.7 80.3734 29.9314 80.178 29.9314 80.178V31.8116H29.9454Z" fill="#58E0D9"/>
<path d="M70.9078 56.6299C70.9078 56.6299 80.9552 68.6622 89.4288 71.398C89.4288 71.398 91.0448 71.9843 90.6513 81.4622L92.2954 81.5599L91.8598 86.906C94.3049 86.7385 94.8529 86.571 94.8529 86.571L94.5578 78.5588L92.9137 78.4611C93.3072 68.9832 91.6912 68.397 91.6912 68.397C83.2176 65.6611 73.1703 53.6288 73.1703 53.6288C73.1703 53.6288 9.62583 53.7265 7.75688 53.6288C5.88793 53.5311 5.78956 55.1922 5.78956 55.1922L5.7193 56.6299C10.1317 56.7276 70.9078 56.6299 70.9078 56.6299Z" fill="white"/>
<path d="M91.8458 86.906L92.2814 81.5599L90.6373 81.4622C91.0307 71.9843 89.4147 71.3981 89.4147 71.3981C80.9412 68.6622 70.8938 56.6299 70.8938 56.6299C70.8938 56.6299 10.1177 56.7276 5.70524 56.6439C5.60687 56.6439 5.52256 56.6439 5.4804 56.6439C3.61145 56.5462 3.51308 58.2072 3.51308 58.2072L2.33269 81.867L0.955566 83.1372V89.9769H84.4964C84.4964 89.9769 85.185 90.1723 88.5294 89.9769C91.8739 89.7815 91.7755 87.6319 91.7755 87.6319L91.8458 86.906Z" fill="#767676"/>
<path d="M59.132 58.947H69.1091L77.7091 66.708V68.9134L59.132 68.6621V58.947Z" fill="white"/>
<path d="M87.8127 49.6227H99.3497L109.06 57.6488H87.8127V49.6227Z" fill="white"/>
<path d="M19.4484 96.3559C23.29 96.3559 26.4043 93.2624 26.4043 89.4464C26.4043 85.6304 23.29 82.5369 19.4484 82.5369C15.6067 82.5369 12.4925 85.6304 12.4925 89.4464C12.4925 93.2624 15.6067 96.3559 19.4484 96.3559Z" fill="#767676"/>
<path d="M19.4484 93.9411C21.9474 93.9411 23.9732 91.9288 23.9732 89.4464C23.9732 86.9641 21.9474 84.9518 19.4484 84.9518C16.9494 84.9518 14.9235 86.9641 14.9235 89.4464C14.9235 91.9288 16.9494 93.9411 19.4484 93.9411Z" fill="#E5E5E5"/>
<path d="M77.7091 96.3559C81.5508 96.3559 84.665 93.2624 84.665 89.4464C84.665 85.6304 81.5508 82.5369 77.7091 82.5369C73.8675 82.5369 70.7532 85.6304 70.7532 89.4464C70.7532 93.2624 73.8675 96.3559 77.7091 96.3559Z" fill="#767676"/>
<path d="M77.7092 93.9411C80.2082 93.9411 82.234 91.9288 82.234 89.4464C82.234 86.9641 80.2082 84.9518 77.7092 84.9518C75.2102 84.9518 73.1843 86.9641 73.1843 89.4464C73.1843 91.9288 75.2102 93.9411 77.7092 93.9411Z" fill="#E5E5E5"/>
<path d="M111.491 86.5849C115.332 86.5849 118.447 83.4914 118.447 79.6754C118.447 75.8594 115.332 72.766 111.491 72.766C107.649 72.766 104.535 75.8594 104.535 79.6754C104.535 83.4914 107.649 86.5849 111.491 86.5849Z" fill="#58E0D9"/>
<path d="M111.491 84.1701C113.99 84.1701 116.016 82.1578 116.016 79.6754C116.016 77.1931 113.99 75.1808 111.491 75.1808C108.992 75.1808 106.966 77.1931 106.966 79.6754C106.966 82.1578 108.992 84.1701 111.491 84.1701Z" fill="#E5E5E5"/>
</svg>
