<svg width="100" height="100" viewBox="0 0 100 100" fill="none" xmlns="http://www.w3.org/2000/svg">
<path d="M24.3613 75.5553H13.4307L35.7482 97.246L57.1533 75.5553H46.3869V63.4969L53.3029 65.3256L52.8467 69.9063H75.4745V25.4567H86.8796L63.7774 1.77435L41.7701 24.9859H52.8467V34.6182H47.1533L46.6971 30.3452H24.6715V75.6096L24.3613 75.5553Z" fill="#58E0D9"/>
<path d="M35.7664 98.9841L10.4015 74.3422H23.4307V29.114H47.792L48.2482 33.387H51.6058V26.199H38.9051L63.7591 0L89.781 26.6698H76.7153V71.1194H51.4781L51.9708 66.2308L47.6095 65.0721V74.3241H60.0912L35.7664 98.9841ZM16.4416 76.7865L35.7299 95.5259L54.2153 76.7865H45.1277V61.9036L54.6168 64.4203L54.1788 68.6932H74.2153V24.2255H83.9416L63.7956 3.54873L44.6168 23.7729H54.0876V35.8494H46.0584L45.6022 31.5764H25.8942V77.0762L24.2518 76.8046H16.4416V76.7865Z" fill="white"/>
<path d="M32.135 40.5025L49.3796 29.277L67.3175 40.5025V59.3687L49.7263 70.8297L32.135 59.4412V40.5025Z" fill="#E5E5E5"/>
<path d="M49.7263 72.2782L30.9124 60.1111V39.8326L49.3796 27.8104L68.5584 39.8326V60.0387L49.7263 72.2782ZM33.3759 58.7713L49.7263 69.3631L66.0949 58.6988V41.1725L49.3978 30.7254L33.3759 41.1544V58.7713Z" fill="white"/>
<path d="M31.5146 40.8828L48.9234 51.7282L66.6971 41.263V59.749L49.1058 71.21L48.7591 52.1084" fill="#E5E5E5"/>
<path d="M47.9197 73.4551L47.5365 52.3256L30.8577 41.9329L32.1715 39.8689L48.9416 50.3159L67.6277 39.2171L67.938 60.437L47.9197 73.4551ZM50 52.5248L50.292 68.9829L65.4562 59.0972V43.4176L50 52.5248Z" fill="white"/>
</svg>
