<svg width="88" height="89" viewBox="0 0 88 89" fill="none" xmlns="http://www.w3.org/2000/svg">
<path d="M18.0143 62.7344V62.4814L6.85422 58.0916C6.85422 58.0916 5.90016 57.6868 5.09673 58.8507C4.29331 60.0145 5.46078 61.1404 5.46078 61.1404L16.8468 65.6314L18.0143 62.7344Z" fill="#777777"/>
<path d="M18.5038 39.5205L16.0057 45.7193L17.123 47.0729L19.0813 46.744L21.7552 40.7729L29.5384 43.5687L24.0148 59.1922C24.0148 59.1922 20.8262 59.0784 19.2947 61.8236L2.95007 55.1567C2.95007 55.1567 2.25963 54.7898 2.73666 53.588C3.2137 52.3862 8.90043 36.2061 8.90043 36.2061L18.5038 39.5205Z" fill="#58E0D9"/>
<path d="M5.09671 54.1067L7.09272 55.0049L9.3649 49.8814L7.28102 48.9199L5.09671 54.1067Z" fill="#E5E5E5"/>
<path d="M8.28531 55.7259L10.3315 56.5862L12.5912 51.5133L10.5073 50.5645L8.28531 55.7259Z" fill="#E5E5E5"/>
<path d="M25.2953 73.8543C29.0392 73.8543 32.0742 70.7958 32.0742 67.023C32.0742 63.2501 29.0392 60.1917 25.2953 60.1917C21.5514 60.1917 18.5164 63.2501 18.5164 67.023C18.5164 70.7958 21.5514 73.8543 25.2953 73.8543Z" fill="#777777"/>
<path d="M25.471 71.0079C27.655 71.0079 29.4254 69.2238 29.4254 67.023C29.4254 64.8221 27.655 63.038 25.471 63.038C23.2871 63.038 21.5167 64.8221 21.5167 67.023C21.5167 69.2238 23.2871 71.0079 25.471 71.0079Z" fill="#E5E5E5"/>
<path d="M30.4297 58.3447C30.4297 58.3447 29.7769 59.5085 28.4337 59.2049C27.0779 58.9013 26.9272 57.1935 26.9272 57.1935L32.5261 40.7097C32.5261 40.7097 33.5304 36.3705 39.2799 36.4211C45.0294 36.4717 50.0382 36.2061 50.0382 36.2061C50.0382 36.2061 51.0425 37.0284 51.6451 34.4476C52.2476 31.8796 52.8 28.8055 52.8 28.8055C52.8 28.8055 53.6034 25.6302 54.5951 25.0229C55.5994 24.4157 61.4996 21.5946 62.9055 25.0229C64.3115 28.4513 69.2074 39.7989 69.2074 39.7989C69.2074 39.7989 71.2536 42.5187 67.7512 46.7061C64.2488 50.8934 60.2442 55.6248 60.2442 55.6248C60.2442 55.6248 59.0391 56.5862 59.5914 58.4459C60.1438 60.3055 63.8973 69.085 63.8973 69.085C63.8973 69.085 65.3033 72.6146 63.8471 72.9688C62.3909 73.323 55.0471 73.3736 55.0471 73.3736C55.0471 73.3736 52.8502 71.4001 55.5492 71.0079C58.2482 70.6031 59.604 71.9694 57.7461 67.9338C55.8881 63.8983 54.1432 59.3567 54.1432 59.3567C54.1432 59.3567 52.1974 56.738 54.1934 53.8157C56.1894 50.8934 60.0936 45.3398 60.0936 45.3398C60.0936 45.3398 61.4996 44.682 60.194 42.4681C58.8884 40.2543 57.2941 37.8254 57.2941 37.8254C57.2941 37.8254 56.2899 36.0163 55.7375 37.8254C55.1852 39.6344 54.7834 40.2922 54.7834 40.2922C54.7834 40.2922 54.2813 41.6079 52.1849 41.5573C50.0884 41.5067 38.0747 41.5067 38.0747 41.5067C38.0747 41.5067 36.3675 41.2031 35.4762 43.2272C34.5849 45.2513 30.4297 58.3447 30.4297 58.3447Z" fill="#767676"/>
<path d="M65.2029 52.6013L69.7975 47.0603C69.7975 47.0603 71.4545 46.0989 71.5047 48.0218C71.5549 49.9446 72.3082 54.5748 73.4003 56.5483C74.505 58.5091 80.4051 69.5025 80.4051 69.5025C80.4051 69.5025 83.305 73.4368 80.606 73.3862C77.907 73.3356 72.0947 73.3862 72.0947 73.3862C72.0947 73.3862 69.9481 72.4248 71.9943 71.6151C74.0405 70.8055 75.5469 71.6657 72.9986 67.6302C70.4502 63.5947 66.0942 56.2826 66.0942 56.2826C66.0942 56.2826 64.3241 53.6639 65.2029 52.6013Z" fill="#767676"/>
<path d="M87.1589 74.082V78.9652H0.753204V72.8676L87.1589 74.082Z" fill="#767676"/>
<path d="M54.5072 22.1133C57.8975 22.1133 60.6459 19.3436 60.6459 15.9271C60.6459 12.5106 57.8975 9.74097 54.5072 9.74097C51.117 9.74097 48.3686 12.5106 48.3686 15.9271C48.3686 19.3436 51.117 22.1133 54.5072 22.1133Z" fill="#767676"/>
<path d="M50.8793 13.6753H45.1298V15.9271H50.8793V13.6753Z" fill="#767676"/>
</svg>
