<svg width="88" height="88" viewBox="0 0 88 88" fill="none" xmlns="http://www.w3.org/2000/svg">
<path d="M5.08649 58.3206H61.0041V64.753H39.1061C39.1061 64.753 37.3501 66.3555 39.1061 68.4996H68.7755C68.7755 68.4996 70.3841 68.6012 70.3841 67.2808C70.3841 65.9605 70.3841 36.0215 70.3841 36.0215L61.2194 36.1908C61.2194 36.1908 59.0443 33.347 59.0443 28.4719C59.0443 23.5968 61.0947 20.7981 62.6581 19.1957C64.2214 17.5932 68.1298 14.2077 73.2616 14.2077C78.3934 14.2077 82.7662 17.5932 84.137 19.2972C85.5077 21.0013 87.4109 25.1654 87.241 29.2506C87.0371 34.1031 85.8023 36.0667 85.8023 36.0667H77.3172V69.8538C77.3172 69.8538 76.8301 74.9207 71.8908 74.9207C66.9516 74.9207 0.770325 74.9207 0.770325 74.9207V68.2513H27.3584C27.3584 68.2513 28.3893 66.1072 27.3131 64.7417H5.02985L5.08649 58.3206Z" fill="#767676"/>
<path d="M63.1112 33.0198H83.7631C83.7631 33.0198 85.1225 28.1785 83.8311 24.7366C82.6303 21.543 80.8743 19.7487 79.1411 18.5525C77.7477 17.5932 76.6941 17.1419 73.7374 17.0403C70.9505 16.95 68.413 17.6497 66.5777 19.207C64.9691 20.5725 62.6128 22.8859 62.1256 26.2149C61.6951 29.1829 62.1483 30.4017 63.1112 33.0198Z" fill="white"/>
<path d="M64.6293 30.2324C65.2049 30.2324 65.6715 29.7675 65.6715 29.1942C65.6715 28.6208 65.2049 28.1559 64.6293 28.1559C64.0537 28.1559 63.587 28.6208 63.587 29.1942C63.587 29.7675 64.0537 30.2324 64.6293 30.2324Z" fill="#767676"/>
<path d="M65.3429 25.7748C65.9185 25.7748 66.3852 25.31 66.3852 24.7366C66.3852 24.1632 65.9185 23.6984 65.3429 23.6984C64.7673 23.6984 64.3007 24.1632 64.3007 24.7366C64.3007 25.31 64.7673 25.7748 65.3429 25.7748Z" fill="#767676"/>
<path d="M68.6056 21.9041C69.1812 21.9041 69.6478 21.4392 69.6478 20.8659C69.6478 20.2925 69.1812 19.8276 68.6056 19.8276C68.03 19.8276 67.5634 20.2925 67.5634 20.8659C67.5634 21.4392 68.03 21.9041 68.6056 21.9041Z" fill="#767676"/>
<path d="M73.5221 20.7305C74.0978 20.7305 74.5644 20.2656 74.5644 19.6922C74.5644 19.1188 74.0978 18.654 73.5221 18.654C72.9465 18.654 72.4799 19.1188 72.4799 19.6922C72.4799 20.2656 72.9465 20.7305 73.5221 20.7305Z" fill="#767676"/>
<path d="M78.3255 21.9041C78.9011 21.9041 79.3677 21.4392 79.3677 20.8659C79.3677 20.2925 78.9011 19.8276 78.3255 19.8276C77.7499 19.8276 77.2833 20.2925 77.2833 20.8659C77.2833 21.4392 77.7499 21.9041 78.3255 21.9041Z" fill="#767676"/>
<path d="M81.0329 25.7748C81.6086 25.7748 82.0752 25.31 82.0752 24.7366C82.0752 24.1632 81.6086 23.6984 81.0329 23.6984C80.4573 23.6984 79.9907 24.1632 79.9907 24.7366C79.9907 25.31 80.4573 25.7748 81.0329 25.7748Z" fill="#767676"/>
<path d="M81.69 30.2324C82.2656 30.2324 82.7322 29.7675 82.7322 29.1942C82.7322 28.6208 82.2656 28.1559 81.69 28.1559C81.1144 28.1559 80.6478 28.6208 80.6478 29.1942C80.6478 29.7675 81.1144 30.2324 81.69 30.2324Z" fill="#767676"/>
<path d="M71.9362 28.2801C71.9362 28.2801 71.2904 29.3973 72.0268 30.018C72.7631 30.6386 73.5335 30.0857 73.5335 30.0857L79.515 23.0326L71.9362 28.2801Z" fill="#767676"/>
<path d="M7.60144 55.1044H59.0783L54.898 25.7748H12.8805L7.60144 55.1044Z" fill="#58E0D9"/>
<path d="M33.3399 28.2688C37.513 28.2688 40.896 24.8988 40.896 20.7417C40.896 16.5846 37.513 13.2147 33.3399 13.2147C29.1667 13.2147 25.7838 16.5846 25.7838 20.7417C25.7838 24.8988 29.1667 28.2688 33.3399 28.2688Z" fill="#58E0D9"/>
<path d="M33.3399 25.0074C35.6861 25.0074 37.5881 23.1128 37.5881 20.7756C37.5881 18.4384 35.6861 16.5437 33.3399 16.5437C30.9937 16.5437 29.0917 18.4384 29.0917 20.7756C29.0917 23.1128 30.9937 25.0074 33.3399 25.0074Z" fill="white"/>
<path d="M21.4902 34.893H25.0133V40.039L29.3975 34.893H33.5777L28.7631 40.3437L33.7477 47.5773H29.5108L26.3048 42.8715L25.0133 44.3047V47.5886H21.4902V34.893Z" fill="#E5E5E5"/>
<path d="M33.3285 41.2352C33.3285 37.5337 36.2399 34.6448 40.1822 34.6448C42.414 34.6448 44 35.3332 45.348 36.4955L43.2749 38.9782C42.3686 38.2221 41.451 37.782 40.2049 37.782C38.3697 37.782 36.9536 39.3167 36.9536 41.2916C36.9536 43.3342 38.3923 44.8012 40.4088 44.8012C41.2585 44.8012 41.9155 44.6207 42.4479 44.2708V42.7361H39.933V40.1744H45.7899V45.8846C44.4418 46.9905 42.5726 47.8369 40.2615 47.8369C36.2852 47.8369 33.3285 45.1172 33.3285 41.2352Z" fill="#E5E5E5"/>
</svg>
