<svg width="89" height="88" viewBox="0 0 89 88" fill="none" xmlns="http://www.w3.org/2000/svg">
<path d="M52.8382 70.3346C52.1315 70.3346 47.6725 70.3346 47.6725 70.3346C47.6725 70.3346 46.8562 69.4252 46.7588 68.722C46.6613 68.0188 45.5405 65.0967 44.3222 64.9876C43.1038 64.8906 37.7433 64.9876 37.7433 64.9876C37.7433 64.9876 32.3705 64.8906 31.1644 64.9876C29.9461 65.0846 28.8374 68.0066 28.7278 68.722C28.6303 69.4252 27.814 70.3346 27.814 70.3346C27.814 70.3346 23.355 70.3346 22.6484 70.3346C21.9418 70.3346 21.6372 70.7347 21.6372 70.7347V74.0568H37.7433H53.8493V70.7347C53.8493 70.7347 53.557 70.3346 52.8382 70.3346Z" fill="#777777"/>
<path d="M43.0917 62.7446H3.97172C3.97172 62.7446 1.5351 62.5142 1.5351 59.4952C1.5351 56.4762 1.91277 15.1193 1.91277 15.1193C1.91277 15.1193 1.69348 12.2458 4.80017 12.2458C7.90686 12.2458 72.5626 12.2458 72.5626 12.2458C72.5626 12.2458 75.7546 12.3186 75.7546 14.9617C75.7546 17.6049 75.7546 30.081 75.7546 30.081L50.3893 59.9438L43.4815 62.7446H43.0917Z" fill="#777777"/>
<path d="M40.2042 57.3006H7.00525V18.2111H63.9125L40.2042 57.3006Z" fill="white"/>
<path d="M19.0178 22.976H10.6602V31.2935H19.0178V22.976Z" fill="#777777"/>
<path d="M29.1907 22.976H20.8331V31.2935H29.1907V22.976Z" fill="#777777"/>
<path d="M19.0178 33.3425H10.6602V41.66H19.0178V33.3425Z" fill="#777777"/>
<path d="M29.1907 33.3425H20.8331V41.66H29.1907V33.3425Z" fill="#777777"/>
<path d="M19.0178 43.9636H10.6602V52.2811H19.0178V43.9636Z" fill="#777777"/>
<path d="M29.1907 43.9636H20.8331V52.2811H29.1907V43.9636Z" fill="#777777"/>
<path d="M53.8493 65.6666C68.854 65.6666 81.0177 53.5614 81.0177 38.6288C81.0177 23.6963 68.854 11.5911 53.8493 11.5911C38.8447 11.5911 26.681 23.6963 26.681 38.6288C26.681 53.5614 38.8447 65.6666 53.8493 65.6666Z" fill="white"/>
<path d="M53.8493 63.5933C67.7034 63.5933 78.9343 52.4163 78.9343 38.6288C78.9343 24.8413 67.7034 13.6644 53.8493 13.6644C39.9952 13.6644 28.7643 24.8413 28.7643 38.6288C28.7643 52.4163 39.9952 63.5933 53.8493 63.5933Z" fill="#58E0D9"/>
<path d="M53.8493 56.9733C64.0296 56.9733 72.2823 48.7602 72.2823 38.6288C72.2823 28.4975 64.0296 20.2844 53.8493 20.2844C43.669 20.2844 35.4163 28.4975 35.4163 38.6288C35.4163 48.7602 43.669 56.9733 53.8493 56.9733Z" fill="white"/>
<path d="M76.1444 71.741C76.1444 71.741 77.253 72.7231 78.9465 72.0441C80.6278 71.3651 84.1243 70.771 86.9386 64.9391C86.9386 64.9391 87.9986 63.1932 86.9386 61.6776C85.8787 60.162 74.1707 49.4318 74.1707 49.4318L64.8141 59.6528L76.1444 71.741Z" fill="#58E0D9"/>
<path d="M41.3373 31.4632L53.959 23.2185L67.1045 31.4632V45.3215L54.2148 53.736L41.3373 45.3822V31.4632Z" fill="#E5E5E5"/>
<path d="M54.2149 54.8151L40.4236 45.8672V30.9782L53.9468 22.1516L67.9939 30.9661V45.8065L54.2149 54.8151ZM42.2389 44.8972L54.2149 52.669L66.1908 44.8366V31.9603L53.9712 24.2855L42.2389 31.9482V44.8972Z" fill="white"/>
<path d="M40.8866 31.7542L53.6301 39.72L66.6538 32.0331V45.6126L53.7641 54.027L53.5083 39.9989" fill="#E5E5E5"/>
<path d="M52.8991 55.6638L52.6188 40.1444L40.4114 32.506L41.3738 30.9904L53.6544 38.6652L67.336 30.5054L67.5675 46.0854L52.8991 55.6638ZM54.4219 40.2899L54.6412 52.3781L65.7522 45.1155V33.5972L54.4219 40.2899Z" fill="white"/>
</svg>
