<svg width="81" height="53" viewBox="0 0 81 53" fill="none" xmlns="http://www.w3.org/2000/svg">
<path d="M20.2442 39.2621C20.2442 41.7859 18.0142 43.8302 15.2611 43.8302C12.5081 43.8302 10.2781 41.7859 10.2781 39.2621C10.2781 36.7382 12.5081 34.694 15.2611 34.694C18.0142 34.694 20.2442 36.7382 20.2442 39.2621ZM17.7572 39.2621C17.7572 38.0002 16.6377 36.9738 15.2611 36.9738C13.8846 36.9738 12.765 38.0002 12.765 39.2621C12.765 40.524 13.8846 41.5503 15.2611 41.5503C16.6377 41.5503 17.7572 40.524 17.7572 39.2621ZM10.9664 34.694H0.890155C0.449665 34.694 0.0917664 35.0221 0.0917664 35.4259V37.6552C0.0917664 38.059 0.449665 38.3871 0.890155 38.3871H8.74555C8.98415 36.9233 9.79172 35.6194 10.9664 34.694ZM67.8997 39.2621C67.8997 41.7859 65.6697 43.8302 62.9166 43.8302C60.1636 43.8302 57.9336 41.7859 57.9336 39.2621C57.9336 36.7382 60.1636 34.694 62.9166 34.694C65.6697 34.694 67.8997 36.7382 67.8997 39.2621ZM65.4127 39.2621C65.4127 38.0002 64.2932 36.9738 62.9166 36.9738C61.5401 36.9738 60.4205 38.0002 60.4205 39.2621C60.4205 40.524 61.5401 41.5503 62.9166 41.5503C64.2932 41.5503 65.4127 40.524 65.4127 39.2621ZM76.7186 35.4259V37.6552C76.7186 38.059 76.3607 38.3871 75.9202 38.3871H69.4322C68.9642 35.4679 66.2295 33.2217 62.9166 33.2217C59.6038 33.2217 56.8691 35.4679 56.401 38.3871H21.7675C21.5381 36.9149 20.7214 35.6194 19.5467 34.6855H53.5012V13.679C53.5012 12.8714 54.2169 12.2068 55.1071 12.2068H62.678C64.8071 12.2068 66.7984 13.1743 67.9914 14.7979L72.8735 21.4187C73.5893 22.3862 73.9747 23.5387 73.9747 24.7081V34.694H75.9294C76.3607 34.694 76.7186 35.0221 76.7186 35.4259ZM68.5879 21.587L64.6878 16.5057C64.5409 16.3122 64.2932 16.1944 64.0362 16.1944H57.9519C57.5114 16.1944 57.1535 16.5225 57.1535 16.9263V22.0076C57.1535 22.4114 57.5114 22.7395 57.9519 22.7395H67.9364C68.5788 22.7479 68.9642 22.0749 68.5879 21.587Z" fill="black"/>
<path d="M50.9316 23.4799H41.094V32.4983H50.9316V23.4799Z" fill="black"/>
<path d="M41.1032 14.4615H31.2656V23.4799H41.1032V14.4615Z" fill="black"/>
<path d="M31.284 23.4799H21.4464V32.4983H31.284V23.4799Z" fill="black"/>
<path d="M21.4463 14.4615H11.6087V23.4799H21.4463V14.4615Z" fill="black"/>
<path d="M11.6087 23.4799H1.77112V32.4983H11.6087V23.4799Z" fill="black"/>
</svg>
