<svg width="32" height="32" viewBox="0 0 32 32" fill="none" xmlns="http://www.w3.org/2000/svg">
<path d="M19.7053 9.55425H18.4643V2.47212C18.4643 2.2215 18.2619 2.01825 18.0124 2.01825H14.0019C13.7523 2.01825 13.55 2.2215 13.55 2.47212V9.55425H12.2948C12.1476 9.55425 12.0704 9.72962 12.1694 9.83887L15.919 13.9823C15.9398 14.0051 15.9691 14.0182 16 14.0182C16.0309 14.0182 16.0603 14.0051 16.081 13.9823L19.8307 9.83887C19.9295 9.72962 19.8524 9.55425 19.7053 9.55425Z" fill="#FF624B"/>
<path d="M13.977 9.83887C13.878 9.7295 13.9553 9.55425 14.1024 9.55425H15.3575V2.47212C15.3575 2.2215 15.5599 2.01825 15.8094 2.01825H14.0018C13.7521 2.01825 13.5499 2.2215 13.5499 2.47212V9.55425H12.2948C12.1476 9.55425 12.0704 9.72962 12.1694 9.83887L15.919 13.9823C15.9398 14.0051 15.9691 14.0182 16 14.0182C16.0309 14.0182 16.0603 14.0051 16.081 13.9823L16.9038 13.073L13.977 9.83887Z" fill="#FF4B34"/>
<path d="M19.7053 9.55425H18.4643V2.47212C18.4643 2.2215 18.2619 2.01825 18.0124 2.01825H14.0019C13.7523 2.01825 13.55 2.2215 13.55 2.47212V9.55425H12.2948C12.1476 9.55425 12.0704 9.72962 12.1694 9.83887L15.919 13.9823C15.9398 14.0051 15.9691 14.0182 16 14.0182C16.0309 14.0182 16.0603 14.0051 16.081 13.9823L19.8307 9.83887C19.9295 9.72962 19.8524 9.55425 19.7053 9.55425Z" fill="#FF624B"/>
<path d="M13.977 9.83887C13.878 9.7295 13.9553 9.55425 14.1024 9.55425H15.3575V2.47212C15.3575 2.2215 15.5599 2.01825 15.8094 2.01825H14.0018C13.7521 2.01825 13.5499 2.2215 13.5499 2.47212V9.55425H12.2948C12.1476 9.55425 12.0704 9.72962 12.1694 9.83887L15.919 13.9823C15.9398 14.0051 15.9691 14.0182 16 14.0182C16.0309 14.0182 16.0603 14.0051 16.081 13.9823L16.9038 13.073L13.977 9.83887Z" fill="#FF4B34"/>
<path d="M17.4643 8.76562C17.2572 8.76562 17.0893 8.59775 17.0893 8.39062V3.14062C17.0893 2.9335 17.2572 2.76562 17.4643 2.76562C17.6714 2.76562 17.8393 2.9335 17.8393 3.14062V8.39062C17.8393 8.59775 17.6714 8.76562 17.4643 8.76562Z" fill="#FF9079"/>
<path d="M22.4564 29.9818H2.75727C2.6154 29.9818 2.5004 29.8668 2.5004 29.7249V15.2318H22.4563V29.9818H22.4564Z" fill="#FFD551"/>
<path d="M21.4563 29.2679C21.2491 29.2679 21.0813 29.1 21.0813 28.8929V25.1429C21.0813 24.9358 21.2491 24.7679 21.4563 24.7679C21.6634 24.7679 21.8313 24.9358 21.8313 25.1429V28.8929C21.8313 29.0999 21.6634 29.2679 21.4563 29.2679Z" fill="#FFD551"/>
<path d="M2.5004 15.2318V29.7184C2.5004 29.8639 2.61252 29.9818 2.75077 29.9818H6.00627V15.2318H2.5004Z" fill="#F9BB32"/>
<path d="M29.2428 29.9818H22.4564V15.2318H29.4996V29.725C29.4996 29.8668 29.3846 29.9818 29.2428 29.9818Z" fill="#DB9C2E"/>
<path d="M19.6582 20.5783H17.9274C17.7202 20.5783 17.5524 20.4104 17.5524 20.2033C17.5524 19.9961 17.7202 19.8283 17.9274 19.8283H19.6582C19.713 19.8283 19.7625 19.7838 19.7786 19.72L20.6719 16.1932C20.7227 15.9924 20.9267 15.8712 21.1275 15.9218C21.3282 15.9727 21.4497 16.1767 21.3989 16.3774L20.5056 19.9041C20.4051 20.3011 20.0566 20.5783 19.6582 20.5783Z" fill="#FFDF74"/>
<path d="M7.76175 29.411C8.38307 29.411 8.88675 28.9073 8.88675 28.286C8.88675 27.6647 8.38307 27.161 7.76175 27.161C7.14043 27.161 6.63675 27.6647 6.63675 28.286C6.63675 28.9073 7.14043 29.411 7.76175 29.411Z" fill="#F9BB32"/>
<path d="M29.4754 27.4818H25.9754C25.8373 27.4818 25.7254 27.3699 25.7254 27.2318V25.7318C25.7254 25.5936 25.8373 25.4818 25.9754 25.4818H29.4754V27.4818Z" fill="#BF6C0D"/>
<path d="M3.875 15.2318V16.2318H4.00038L2.64213 21.5945C2.5575 21.9289 2.79713 22.2569 3.12613 22.2569H12.8045H21.928C22.155 22.2569 22.3535 22.0964 22.412 21.8656L22.4564 21.6905V16.2316V15.2316H3.875V15.2318Z" fill="#F9BB32"/>
<path d="M28.7631 15.2318H22.4564V16.2318V16.2853V19.1929L23.1334 21.8656C23.1919 22.0963 23.3904 22.2569 23.6174 22.2569H29.4997V19.1929L28.7634 16.2853V15.2318H28.7631Z" fill="#E58D23"/>
<path d="M22.4564 15.2318L23.8834 20.8656C23.9418 21.0963 24.1404 21.2568 24.3674 21.2568H30.374C30.703 21.2568 30.9426 20.9288 30.858 20.5944L29.4998 15.2316H22.4564V15.2318Z" fill="#FFD551"/>
<path d="M22.3389 15.2318L20.9119 20.8656C20.8535 21.0963 20.6549 21.2568 20.4279 21.2568H11.3045H1.62613C1.29713 21.2568 1.0575 20.9288 1.14213 20.5944L2.50038 15.2316H22.3389V15.2318Z" fill="#FFDF74"/>
<path d="M4.64814 20.5945L6.00638 15.2318H2.50039L1.14214 20.5945C1.05739 20.9289 1.29714 21.2569 1.62614 21.2569H5.13213C4.80313 21.2569 4.56339 20.9289 4.64814 20.5945Z" fill="#FFD551"/>
<path d="M6.63675 20.9943C7.25807 20.9943 7.76175 20.4906 7.76175 19.8693C7.76175 19.248 7.25807 18.7443 6.63675 18.7443C6.01543 18.7443 5.51175 19.248 5.51175 19.8693C5.51175 20.4906 6.01543 20.9943 6.63675 20.9943Z" fill="#FFD551"/>
<path d="M19.6582 20.5783H17.9274C17.7202 20.5783 17.5524 20.4104 17.5524 20.2033C17.5524 19.9961 17.7202 19.8283 17.9274 19.8283H19.6582C19.713 19.8283 19.7625 19.7838 19.7786 19.72L20.6719 16.1932C20.7227 15.9924 20.9267 15.8712 21.1275 15.9218C21.3282 15.9727 21.4497 16.1767 21.3989 16.3774L20.5056 19.9041C20.4051 20.3011 20.0566 20.5783 19.6582 20.5783Z" fill="#FFF4C1"/>
</svg>
